<?xml version="1.0" encoding="UTF-8"?>
<svg width="17px" height="17px" viewBox="0 0 17 17" version="1.1" xmlns="http://www.w3.org/2000/svg" xmlns:xlink="http://www.w3.org/1999/xlink">
    <!-- Generator: Sketch 46.2 (44496) - http://www.bohemiancoding.com/sketch -->
    <title>bus</title>
    <desc>Created with Sketch.</desc>
    <defs></defs>
    <g id="Page-2" stroke="none" stroke-width="1" fill="none" fill-rule="evenodd">
        <g id="Контакты" transform="translate(-743.000000, -491.000000)" fill-rule="nonzero" fill="#2F223A">
            <g id="bus" transform="translate(743.000000, 491.000000)">
                <path d="M16.0383618,4.22402295 C16.0127159,4.22435586 15.9872467,4.22822465 15.9627091,4.23551466 L15.9627091,2.25565781 C15.9628509,2.16175231 15.9521357,2.06813136 15.9307669,1.97657351 C15.9320559,1.95689354 15.9320559,1.93715326 15.9307669,1.9174733 C15.9358104,0.86023631 12.5650646,0 8.40584999,0 C4.24663541,0 0.875889568,0.86023631 0.875889568,1.91911497 C0.874600549,1.93879494 0.874600549,1.95853522 0.875889568,1.97821518 C0.85351425,2.06911241 0.841671731,2.1621774 0.840584999,2.25565781 L0.840584999,4.23551466 C0.816047376,4.22822465 0.790578224,4.22435586 0.764932349,4.22402295 C0.346321019,4.22402295 0,5.22708475 0,6.46326403 C0,7.69944331 0.346321019,8.70414678 0.773338199,8.70414678 C0.796158666,8.70308565 0.818751718,8.69922475 0.840584999,8.69265508 L0.840584999,13.1744206 C0.842432833,13.8754349 1.42393032,14.4432706 2.14181058,14.445075 L2.36372502,14.445075 C2.36372502,14.454925 2.36372502,14.4647751 2.36372502,14.4746251 L2.36372502,15.2232277 C2.36465,15.6816283 2.74496753,16.0530106 3.21439703,16.0539139 L4.03480799,16.0539139 C4.50029359,16.0476383 4.87451915,15.6778196 4.87539299,15.2232277 L4.87539299,14.4746251 C4.87539299,14.4647751 4.87539299,14.454925 4.87539299,14.445075 L11.936307,14.445075 C11.936307,14.454925 11.936307,14.4647751 11.936307,14.4746251 L11.936307,15.2232277 C11.9362625,15.678459 12.3107525,16.0492703 12.776892,16.0555556 L13.5855347,16.0555556 C14.0549643,16.0546523 14.4352818,15.68327 14.4362068,15.2248693 L14.4362068,14.4746251 C14.4362068,14.4647751 14.4362068,14.454925 14.4362068,14.445075 L14.6581212,14.445075 C15.0049916,14.4472586 15.3384712,14.3144559 15.5848523,14.0760197 C15.8312335,13.8375834 15.9702282,13.5131475 15.971115,13.1744206 L15.971115,8.69265508 C15.9956526,8.69994509 16.0211217,8.70381388 16.0467676,8.70414678 C16.4737848,8.70414678 16.8201058,7.70108498 16.8201058,6.4649057 C16.8201058,5.22872643 16.465379,4.22402295 16.0383618,4.22402295 Z M5.52936812,0.985003408 L11.2823318,0.985003408 C11.5460215,0.985003408 11.7597841,1.1937439 11.7597841,1.45123835 C11.7597841,1.70873281 11.5460215,1.9174733 11.2823318,1.9174733 L5.52936812,1.9174733 C5.26567851,1.9174733 5.05191584,1.70873281 5.05191584,1.45123835 C5.05191584,1.1937439 5.26567851,0.985003408 5.52936812,0.985003408 Z M3.61619666,13.1530788 C3.24289325,13.1530788 2.90634769,12.9334895 2.76349066,12.5967049 C2.62063363,12.2599204 2.69959837,11.8722646 2.96356374,11.6145009 C3.22752912,11.3567371 3.62451167,11.2796276 3.96939906,11.4191283 C4.31428644,11.558629 4.53915899,11.8872678 4.53915899,12.2518007 C4.53915899,12.7495629 4.12593468,13.1530788 3.61619666,13.1530788 Z M13.1988656,13.1530788 C12.8255622,13.1530788 12.4890167,12.9334895 12.3461596,12.5967049 C12.2033026,12.2599204 12.2822673,11.8722646 12.5462327,11.6145009 C12.8101981,11.3567371 13.2071807,11.2796276 13.552068,11.4191283 C13.8969554,11.558629 14.121828,11.8872678 14.121828,12.2518007 C14.1218296,12.4914045 14.0241278,12.7211471 13.8503109,12.8902642 C13.676494,13.0593814 13.4408702,13.1539517 13.1955033,13.1530788 L13.1988656,13.1530788 Z M14.5875121,9.26888207 C14.5856672,9.79672302 14.1479304,10.2241755 13.60739,10.2259771 L3.20599118,10.2259771 C2.6654507,10.2241755 2.22771394,9.79672302 2.22586908,9.26888207 L2.22586908,3.65928766 C2.22771394,3.13144672 2.6654507,2.7039942 3.20599118,2.70219268 L13.6057088,2.70219268 C14.1462493,2.7039942 14.583986,3.13144672 14.5858309,3.65928766 L14.5858309,9.26888207 L14.5875121,9.26888207 Z" id="Shape"></path>
            </g>
        </g>
    </g>
</svg>