<?xml version="1.0" encoding="UTF-8"?>
<svg width="21px" height="20px" viewBox="0 0 21 20" version="1.1" xmlns="http://www.w3.org/2000/svg" xmlns:xlink="http://www.w3.org/1999/xlink">
    <!-- Generator: Sketch 46.2 (44496) - http://www.bohemiancoding.com/sketch -->
    <title>call</title>
    <desc>Created with Sketch.</desc>
    <defs></defs>
    <g id="Symbols" stroke="none" stroke-width="1" fill="none" fill-rule="evenodd">
        <g id="nav" transform="translate(-150.000000, -13.000000)" fill-rule="nonzero" fill="#FFFFFF">
            <g id="call">
                <g>
                    <path d="M157.6,18.4933333 C157.68,18.4133333 158.053333,17.9866667 158.026667,17.3733333 C158.026667,17.08 157.893333,16.6 157.413333,16.1733333 L154.773333,13.6666667 C154.666667,13.5333333 154.213333,13.1066667 153.546667,13.08 C153.2,13.0533333 152.693333,13.16 152.133333,13.6666667 C152.08,13.72 151.066667,14.6533333 150.693333,15.8 C150.506667,16.3066667 148.4,21.7733333 155.12,28.1466667 L155.253333,28.28 C159.013333,31.9066667 162.373333,32.76 164.666667,32.76 C166.453333,32.76 167.6,32.2533333 167.84,32.1466667 C168.96,31.72 169.866667,30.6533333 169.893333,30.6266667 C170.4,30.0666667 170.453333,29.5333333 170.426667,29.1866667 C170.373333,28.52 169.92,28.0933333 169.786667,28.0133333 L167.146667,25.5066667 C166.666667,25.0266667 166.213333,24.9466667 165.92,24.9466667 C165.333333,24.9466667 164.906667,25.32 164.826667,25.4266667 L163.813333,26.4133333 C163.493333,26.7066667 163.04,26.7866667 162.666667,26.5733333 C161.44,25.9333333 160.346667,25.1333333 159.28,24.12 L159.173333,24.0133333 C158.106667,23 157.253333,21.9333333 156.586667,20.7333333 C156.373333,20.36 156.426667,19.9066667 156.693333,19.5866667 L157.6,18.4933333 Z M155.626667,21.2666667 C156.373333,22.5466667 157.28,23.6933333 158.4,24.76 L158.506667,24.8666667 C159.626667,25.96 160.826667,26.8133333 162.133333,27.48 C162.906667,27.88 163.866667,27.7466667 164.506667,27.1333333 L165.546667,26.12 C165.546667,26.12 165.653333,26.0133333 165.813333,25.9866667 C165.866667,25.96 166.08,25.9333333 166.373333,26.2266667 L169.013333,28.76 L169.066667,28.7866667 C169.066667,28.7866667 169.306667,28.9733333 169.333333,29.2666667 C169.36,29.4533333 169.253333,29.6666667 169.066667,29.9066667 C168.853333,30.1733333 168.133333,30.8666667 167.44,31.1333333 L167.386667,31.16 C167.333333,31.1866667 162.346667,33.6133333 156.026667,27.5066667 L155.866667,27.3733333 C149.52,21.3733333 151.6,16.3866667 151.706667,16.2 L151.733333,16.1466667 C152,15.2933333 152.88,14.4666667 152.906667,14.44 C153.12,14.2533333 153.306667,14.1466667 153.493333,14.1466667 C153.493333,14.1466667 153.52,14.1466667 153.52,14.1466667 C153.786667,14.1466667 154,14.3866667 154,14.3866667 L156.693333,16.9733333 C157.013333,17.2666667 156.96,17.4533333 156.96,17.5066667 C156.933333,17.6666667 156.826667,17.7733333 156.826667,17.7733333 L156.826667,17.7733333 L155.84,18.8666667 C155.28,19.5333333 155.173333,20.4933333 155.626667,21.2666667 Z"></path>
                </g>
            </g>
        </g>
    </g>
</svg>