<?xml version="1.0" encoding="UTF-8"?>
<svg width="19px" height="16px" viewBox="0 0 19 16" version="1.1" xmlns="http://www.w3.org/2000/svg" xmlns:xlink="http://www.w3.org/1999/xlink">
    <!-- Generator: Sketch 46.2 (44496) - http://www.bohemiancoding.com/sketch -->
    <title>car</title>
    <desc>Created with Sketch.</desc>
    <defs>
        <path d="M18.0305133,4.14054832 C17.9090043,4.14054832 17.786849,4.14054832 17.6640474,4.14054832 C17.2461159,4.16112677 16.8510435,4.33896615 16.5568936,4.63892673 C16.09154,3.44868182 15.4885192,2.10403733 15.1220533,1.564616 C14.4608634,0.606947685 13.4971936,0.339191442 12.8301868,0.221925934 C11.72818,0.0520414765 10.6135633,-0.0205478116 9.49903051,0.00498474508 L9.49903051,0.00498474508 C8.38643673,-0.0201965309 7.27378204,0.0523917402 6.17369119,0.221925934 C5.50668436,0.339191442 4.54301459,0.61281096 3.88182468,1.564616 C3.50954179,2.10403733 2.91233799,3.44868182 2.44310644,4.63306345 C2.14895645,4.33310288 1.75388406,4.15526349 1.33595265,4.13468504 C1.213151,4.13468504 1.09099568,4.13468504 0.969486682,4.13468504 C0.436677465,4.14101641 0.00628131084,4.57484241 0,5.11189761 C0,5.3210211 0,5.54577999 0,5.8193995 C0.0103279567,6.37307949 0.453146658,6.81942703 1.00244923,6.8298373 L1.43096234,6.8298373 L1.48719257,6.8298373 C0.937651862,8.56897568 0.657729307,10.3831948 0.657311971,12.2084152 L0.657311971,15.0012888 C0.657310924,15.5520994 1.09973353,15.9989221 1.64618839,16 L2.92784978,16 C3.47506201,16 3.91866517,15.5528617 3.91866517,15.0012888 L3.91866517,13.9146284 C5.774909,14.0970414 7.63503079,14.1882479 9.49903051,14.1882479 C11.3630302,14.1882479 13.223152,14.0970414 15.0793959,13.9146284 L15.0793959,13.9146284 L15.0793959,15.0012888 C15.0793959,15.5528617 15.522999,16 16.0702112,16 L17.3518726,16 C17.8990849,16 18.342688,15.5528617 18.342688,15.0012888 L18.342688,12.2084152 C18.3416438,10.3830931 18.0610668,8.56887151 17.5108685,6.8298373 L17.5670987,6.8298373 L17.9878559,6.8298373 C18.5383155,6.82372604 18.985437,6.37994843 19,5.82526278 C19,5.55164326 19,5.32688437 19,5.11776088 C18.9937187,4.58070568 18.5633225,4.14687968 18.0305133,4.14054832 Z M6.20277579,10.543245 L4.43831003,10.543245 C3.97141271,10.543245 3.59291764,10.1617337 3.59291764,9.69111568 L3.59291764,9.22205365 C3.59086099,8.95714096 3.71143657,8.70640271 3.91902189,8.5439163 C4.12660721,8.38142989 4.39747361,8.32576881 4.6515971,8.3933774 L6.41606286,8.860485 C6.84084743,8.95754122 7.12294748,9.36402776 7.06774953,9.79952016 C7.01255158,10.2350126 6.63812451,10.5569538 6.20277579,10.543245 Z M4.25022962,5.63177469 L4.25022962,5.63177469 C4.70782733,4.45911961 5.29145831,3.1359738 5.56097561,2.74313435 C5.71221553,2.52619316 5.9332585,2.35224932 6.53046229,2.25452807 C7.5145888,2.1040804 8.50967219,2.03869492 9.50484743,2.05908556 C10.5000263,2.03853239 11.4951234,2.10391877 12.4792326,2.25452807 C13.0706195,2.3581126 13.2916624,2.52423874 13.4487193,2.74117993 C13.7201755,3.13206495 14.3018675,4.46693731 14.7594653,5.62982027 L14.7594653,5.62982027 C13.0066333,5.80311263 11.2531551,5.88975881 9.49903051,5.88975881 C7.74490594,5.88975881 5.99530564,5.8037641 4.25022962,5.63177469 Z M15.3993265,9.68720683 C15.400358,9.91388209 15.3117458,10.1316301 15.153092,10.2922817 C14.9944382,10.4529334 14.7788196,10.5432474 14.5539341,10.543245 L12.7952852,10.543245 C12.3692805,10.5446332 12.0088041,10.2263025 11.9541468,9.80044953 C11.8994895,9.37459658 12.1677291,8.97428031 12.5800592,8.86634828 L14.3464639,8.3933774 C14.6001939,8.32522906 14.8709378,8.3800797 15.0788413,8.54175141 C15.2867447,8.70342313 15.4080883,8.95347101 15.4070824,9.2181448 L15.3993265,9.68720683 Z" id="path-1"></path>
    </defs>
    <g id="Page-2" stroke="none" stroke-width="1" fill="none" fill-rule="evenodd">
        <g id="Контакты" transform="translate(-741.000000, -568.000000)" fill-rule="nonzero">
            <g id="car" transform="translate(741.000000, 568.000000)">
                <g id="Shape">
                    <use fill="#2F223A" fill-rule="evenodd" xlink:href="#path-1"></use>
                    <path stroke="#FFFFFF" stroke-width="0.300000012" d="M18.028731,4.29053773 C18.4798219,4.29589804 18.8446787,4.66366238 18.8500103,5.11951514 C18.85,5.43926382 18.85,5.43926382 18.85,5.82526278 C18.8375991,6.29562818 18.4557378,6.67463357 17.9861907,6.67984653 L17.5670987,6.67983729 L17.3060829,6.67983729 L17.3678554,6.87508399 C17.913431,8.59950708 18.1916525,10.3984982 18.192688,12.2085011 L18.192688,15.0012888 C18.192688,15.4702844 17.8159745,15.85 17.3518726,15.85 L16.0702112,15.85 C15.6061094,15.85 15.2293959,15.4702844 15.2293959,15.0012888 L15.2293959,13.9146284 L15.064726,13.7653475 C13.2133567,13.9472814 11.3581307,14.0382479 9.49903051,14.0382479 C7.63993032,14.0382479 5.78470434,13.9472814 3.933335,13.7653475 L3.76866516,13.9146284 L3.76866516,15.0012888 C3.76866516,15.4702844 3.3919516,15.85 2.92784978,15.85 L1.64618839,15.85 C1.18302352,15.8490861 0.807311087,15.469637 0.807311977,15.001289 L0.807311977,12.2084152 C0.807725806,10.3985476 1.08529841,8.5995588 1.63022197,6.87503236 L1.69190058,6.67983729 L1.00244923,6.67983729 C0.536877167,6.67098694 0.158802472,6.28989935 0.149973917,5.816602 C0.150000006,5.43340054 0.150000006,5.43340054 0.150000006,5.11189761 C0.155321328,4.6577991 0.520178102,4.29003477 0.971269005,4.28467446 C1.15207334,4.28468505 1.15207334,4.28468505 1.33595265,4.28468505 C1.70877329,4.30322402 2.068251,4.46504069 2.33600818,4.73808709 L2.49756904,4.90283939 L2.58256076,4.68831284 C3.11787662,3.33712863 3.67656538,2.12610735 4.00527791,1.64981753 C4.53075815,0.893372347 5.24895122,0.536803646 6.19966414,0.369660182 C7.28794917,0.201979233 8.39182321,0.129963801 9.49563644,0.154946347 C10.608202,0.129614372 11.7140216,0.201630755 12.8073328,0.370174714 C13.7630942,0.538239552 14.4739201,0.889870379 14.9986153,1.64983961 C15.3295893,2.13702598 15.9082347,3.39177694 16.4171914,4.69354648 L16.5016307,4.9095187 L16.6639918,4.74395037 C16.931749,4.47090396 17.2912267,4.3090873 17.6714242,4.29036682 C17.8479267,4.29054832 17.8479267,4.29054832 18.0305133,4.29054832 L18.028731,4.29053773 Z M6.20050998,10.693245 L4.43831003,10.693245 C3.8883023,10.693245 3.44291764,10.2443111 3.44291764,9.69111568 L3.44292216,9.22321815 C3.44050476,8.91183903 3.58228314,8.61700933 3.82656565,8.42579837 C4.07117192,8.23433399 4.3905396,8.16870624 4.6899843,8.24837249 L6.44947435,8.71425343 C6.94966158,8.82853789 7.28142773,9.30658984 7.21655898,9.81838151 C7.15176679,10.3295691 6.71235644,10.7081115 6.20050998,10.693245 Z M4.11049201,5.57724578 C4.61021243,4.29664565 5.17548638,3.03986676 5.43792612,2.65735076 C5.64322488,2.36286662 5.93632176,2.1997532 6.50779449,2.10625072 C7.50043633,1.95450128 8.50413175,1.88854991 9.50175018,1.90911753 C10.5055586,1.88838614 11.5092841,1.95433948 12.5051119,2.10677739 C13.0722028,2.20610636 13.3612805,2.36461022 13.5719235,2.65561878 C13.8296106,3.02667681 14.3773376,4.24908512 14.8990473,5.57489434 L14.9717167,5.75956748 L14.7742229,5.77909254 C13.0164918,5.95286926 11.2580884,6.03975881 9.49903051,6.03975881 C7.73999339,6.03975881 5.98548308,5.95352278 4.23551735,5.78105145 L4.0385379,5.76163775 L4.11049201,5.57724578 Z M15.5493311,9.68816907 C15.5501078,9.95390258 15.4460117,10.2091453 15.2598196,10.397682 C15.0730146,10.5868394 14.8189716,10.6932479 14.5539341,10.693245 L12.795774,10.6932442 C12.2939007,10.6948796 11.8696265,10.3202101 11.8053673,9.81954507 C11.741135,9.31909015 12.0565834,8.84832015 12.541262,8.72145251 L14.307555,8.24851161 C14.6067138,8.16816172 14.9259383,8.23283415 15.1709214,8.42334002 C15.4155808,8.61359428 15.5582637,8.9076151 15.5570619,9.2206247 L15.5493311,9.68816907 Z"></path>
                </g>
            </g>
        </g>
    </g>
</svg>