<?xml version="1.0" encoding="UTF-8"?>
<svg width="46px" height="22px" viewBox="0 0 46 22" version="1.1" xmlns="http://www.w3.org/2000/svg" xmlns:xlink="http://www.w3.org/1999/xlink">
    <!-- Generator: Sketch 46.2 (44496) - http://www.bohemiancoding.com/sketch -->
    <title>eye</title>
    <desc>Created with Sketch.</desc>
    <defs></defs>
    <g id="Symbols" stroke="none" stroke-width="1" fill="none" fill-rule="evenodd">
        <g id="nav" transform="translate(-1233.000000, -12.000000)" fill-rule="nonzero" fill="#FFFFFF">
            <g id="eye">
                <g>
                    <g transform="translate(1233.000000, 12.000000)">
                        <g id="Group">
                            <path d="M23,0.204306667 C13.3752854,0.204306667 4.92087805,4.31533949 0.122741295,10.5697026 C-0.0321422141,10.7723965 -0.0321422141,11.0544805 0.122741295,11.2571744 C4.92093415,17.5115487 13.3752854,21.6402154 23,21.6402154 C32.6247146,21.6402154 41.079122,17.5115487 45.8772585,11.2571744 C46.032142,11.0544805 46.032142,10.7723965 45.8772585,10.5697026 C41.0790659,4.31533949 32.6247146,0.204306667 23,0.204306667 Z M19.0556683,1.59693487 C15.4439951,3.14512564 12.902439,6.72985077 12.902439,10.9222667 C12.902439,15.1005744 15.4282878,18.6908051 19.0205512,20.247559 C11.5871195,19.3097949 5.21589512,15.8066615 1.2972561,10.9222667 C5.221,6.02531487 11.604622,2.52688051 19.0556683,1.59693487 L19.0556683,1.59693487 Z M26.9443317,1.59693487 C34.395378,2.52688051 40.779,6.02531487 44.7027439,10.9222667 C40.7841049,15.8066615 34.4128805,19.3097949 26.9794488,20.247559 C30.5716561,18.6908051 33.097561,15.1005744 33.097561,10.9222667 C33.097561,6.72985077 30.5560049,3.14512 26.9443317,1.59693487 Z M23,1.89661436 C27.9637366,1.89661436 31.9756098,5.93088974 31.9756098,10.9222667 C31.9756098,15.9136154 27.9637366,19.9479077 23,19.9479077 C18.0362073,19.9479077 14.0243902,15.9136718 14.0243902,10.9222667 C14.0243902,5.9308841 18.0362073,1.89661436 23,1.89661436 Z M23,6.40943487 C20.5281171,6.40943487 18.5121951,8.43657692 18.5121951,10.9222667 C18.5121951,13.4079282 20.5281171,15.4350872 23,15.4350872 C25.4718829,15.4350872 27.4878049,13.4079282 27.4878049,10.9222667 C27.4878049,8.43657692 25.4718829,6.40943487 23,6.40943487 Z M23,7.53764 C24.8655805,7.53764 26.3658537,9.0463041 26.3658537,10.9222667 C26.3658537,12.7981897 24.8655805,14.3068821 23,14.3068821 C21.1344195,14.3068821 19.6341463,12.7981897 19.6341463,10.9222667 C19.6341463,9.0463041 21.1344195,7.53764 23,7.53764 Z" id="Shape"></path>
                        </g>
                    </g>
                </g>
            </g>
        </g>
    </g>
</svg>