<?xml version="1.0" encoding="UTF-8"?>
<svg width="24px" height="24px" viewBox="0 0 24 24" version="1.1" xmlns="http://www.w3.org/2000/svg" xmlns:xlink="http://www.w3.org/1999/xlink">
    <!-- Generator: Sketch 46.2 (44496) - http://www.bohemiancoding.com/sketch -->
    <title>fb</title>
    <desc>Created with Sketch.</desc>
    <defs></defs>
    <g id="Symbols" stroke="none" stroke-width="1" fill="none" fill-rule="evenodd" fill-opacity="0.54296875">
        <g id="footer" transform="translate(-1229.000000, -67.000000)" fill-rule="nonzero" fill="#FFFFFF">
            <g id="fb" transform="translate(1229.000000, 67.000000)">
                <path d="M22.5749508,0.000393442623 L1.31881967,0.000393442623 C0.59095082,0.000393442623 0,0.590163934 0,1.31921311 L0,22.5753443 C0,23.3043934 0.59095082,23.8949508 1.31881967,23.8949508 L12.7624918,23.8949508 L12.7624918,14.6415738 L9.64878689,14.6415738 L9.64878689,11.0348852 L12.7624918,11.0348852 L12.7624918,8.37521311 C12.7624918,5.28944262 14.6466885,3.6082623 17.4,3.6082623 C18.72,3.6082623 19.8519344,3.70701639 20.1820328,3.74990164 L20.1820328,6.97534426 L18.2722623,6.97613115 C16.7752131,6.97613115 16.4864262,7.68786885 16.4864262,8.73167213 L16.4864262,11.0337049 L20.0580984,11.0337049 L19.591082,14.64 L16.4860328,14.64 L16.4860328,23.8937705 L22.5745574,23.8937705 C23.3032131,23.8937705 23.8945574,23.3024262 23.8945574,22.5753443 L23.8945574,1.31842623 C23.8941639,0.590163934 23.3036066,0.000393442623 22.5749508,0.000393442623 Z" id="Shape"></path>
            </g>
        </g>
    </g>
</svg>