<?xml version="1.0" encoding="UTF-8"?>
<svg width="24px" height="25px" viewBox="0 0 24 25" version="1.1" xmlns="http://www.w3.org/2000/svg" xmlns:xlink="http://www.w3.org/1999/xlink">
    <!-- Generator: Sketch 46.2 (44496) - http://www.bohemiancoding.com/sketch -->
    <title>insta</title>
    <desc>Created with Sketch.</desc>
    <defs></defs>
    <g id="Symbols" stroke="none" stroke-width="1" fill="none" fill-rule="evenodd">
        <g id="footer" transform="translate(-1193.000000, -67.000000)" fill-rule="nonzero" fill="#FFFFFF">
            <g id="noun_1382440_cc" transform="translate(1193.000000, 67.000000)">
                <g id="insta" transform="translate(0.000000, 0.206861)">
                    <path d="M6.81081081,0.117460541 C3.05447027,0.117460541 0,3.17194703 0,6.92827135 L0,17.3066595 C0,21.0629838 3.05447027,24.1174703 6.81081081,24.1174703 L17.1891892,24.1174703 C20.9455297,24.1174703 24,21.0629838 24,17.3066595 L24,6.92827135 C24,3.17194703 20.9455297,0.117460541 17.1891892,0.117460541 L6.81081081,0.117460541 Z M6.81081081,2.06340649 L17.1891892,2.06340649 C19.9011341,2.06340649 22.0540541,4.21633622 22.0540541,6.92827135 L22.0540541,17.3066595 C22.0540541,20.0185946 19.9011341,22.1715243 17.1891892,22.1715243 L6.81081081,22.1715243 C4.0988627,22.1715243 1.94594595,20.0185946 1.94594595,17.3066595 L1.94594595,6.92827135 C1.94594595,4.21633622 4.0988627,2.06340649 6.81081081,2.06340649 Z M18.4864865,4.00935243 C17.7699892,4.00935243 17.1891892,4.59015243 17.1891892,5.30664973 C17.1891892,6.02311459 17.7699892,6.60394703 18.4864865,6.60394703 C19.2029514,6.60394703 19.7837838,6.02311459 19.7837838,5.30664973 C19.7837838,4.59015243 19.2029514,4.00935243 18.4864865,4.00935243 Z M12,5.63097405 C8.42912108,5.63097405 5.51351351,8.5466173 5.51351351,12.1174703 C5.51351351,15.6883135 8.42912108,18.6039568 12,18.6039568 C15.5708757,18.6039568 18.4864865,15.6883135 18.4864865,12.1174703 C18.4864865,8.5466173 15.5708757,5.63097405 12,5.63097405 Z M12,7.57692 C14.5192022,7.57692 16.5405405,9.59830378 16.5405405,12.1174703 C16.5405405,14.636627 14.5192022,16.6580108 12,16.6580108 C9.48079459,16.6580108 7.45945946,14.636627 7.45945946,12.1174703 C7.45945946,9.59830378 9.48079459,7.57692 12,7.57692 Z" id="Shape"></path>
                </g>
            </g>
        </g>
    </g>
</svg>