<?xml version="1.0" encoding="UTF-8"?>
<svg width="387px" height="564px" viewBox="0 0 387 564" version="1.1" xmlns="http://www.w3.org/2000/svg" xmlns:xlink="http://www.w3.org/1999/xlink">
    <!-- Generator: Sketch 46.2 (44496) - http://www.bohemiancoding.com/sketch -->
    <title>kids</title>
    <desc>Created with Sketch.</desc>
    <defs>
        <filter x="-2.8%" y="-1.5%" width="106.7%" height="104.9%" filterUnits="objectBoundingBox" id="filter-1">
            <feOffset dx="2" dy="6" in="SourceAlpha" result="shadowOffsetOuter1"></feOffset>
            <feGaussianBlur stdDeviation="4" in="shadowOffsetOuter1" result="shadowBlurOuter1"></feGaussianBlur>
            <feColorMatrix values="0 0 0 0 0   0 0 0 0 0   0 0 0 0 0  0 0 0 0.5 0" type="matrix" in="shadowBlurOuter1" result="shadowMatrixOuter1"></feColorMatrix>
            <feMerge>
                <feMergeNode in="shadowMatrixOuter1"></feMergeNode>
                <feMergeNode in="SourceGraphic"></feMergeNode>
            </feMerge>
        </filter>
        <polygon id="path-2" points="5.0600118e-15 51.7724146 5.0600118e-15 0.12371307 43.4504795 0.12371307 43.4504795 51.7724146"></polygon>
        <path d="M47.6777718,87.2833574 C79.9916792,87.2833533 125.841518,82.4268272 176.055893,72.8795027 C268.129255,55.372597 340.776579,28.5676719 340.948701,12.2928086 L340.948701,12.2928103 L340.948701,12.1770987 C340.94536,11.8624246 340.914711,11.5517291 340.856365,11.2451568 C339.42208,3.71254921 321.513253,0.00135500655 293.262398,0.00135852566 L293.262368,0.00135852565 C260.951833,0.00136255047 215.113331,4.85581606 164.921285,14.3998336 C72.8193638,31.9126179 0.17234426,58.7184338 -1.76072567e-08,74.9917262 L6.98992794e-10,75.1075753 C0.00334436245,75.4221954 0.0339939056,75.7328364 0.0923353478,76.0393539 C1.52644782,83.57226 19.4303784,87.2833609 47.6777718,87.2833574 L47.6778017,87.2833574 L47.6777718,87.2833574 Z" id="path-4"></path>
    </defs>
    <g id="Page-2" stroke="none" stroke-width="1" fill="none" fill-rule="evenodd">
        <g id="Главная" transform="translate(-230.000000, -1979.000000)">
            <g id="Group-5" transform="translate(0.000000, 1927.000000)">
                <g id="kids" filter="url(#filter-1)" transform="translate(236.000000, 52.000000)">
                    <g id="Page-1">
                        <path d="M125.285447,378.011589 C142.045497,376.172974 159.29639,373.789907 174.211424,376.867021 C193.566679,380.864312 192.64069,401.718759 192.39875,417.111286 C192.153328,432.759514 194.583178,448.275543 194.215916,463.882025 C193.991381,473.456041 195.152348,483.758893 194.403898,493.200709 C193.631081,502.962588 187.096941,505.33 178.240868,506.63112 C169.602367,507.900929 161.043933,508.421029 152.779657,505.225632 C148.915568,485.846251 153.110367,466.066793 150.469906,446.690891 C150.191413,444.647019 147.502216,427.495893 145.434407,427.445448 C143.749525,427.405441 142.078568,427.370651 140.386723,427.499372 C139.149171,446.630009 134.376499,465.571045 134.129337,484.734733 C133.997052,494.907125 136.573112,504.815118 124.147107,506.942484 C114.681831,508.561926 92.8584326,511.717316 89.5739572,498.638277 C86.7281081,487.305662 90.3154445,472.70981 90.5295359,461.112796 C90.8149911,445.556759 91.2066217,430.72434 93.9828476,415.424005 C96.1568326,403.437351 98.9191339,391.739448 100.008737,379.596242 C108.038035,379.771928 116.596469,378.964816 125.285447,378.011589" id="Fill-1" fill="#A7B7BC"></path>
                        <path d="M108.208976,270.919592 C111.087238,259.427766 123.889761,256.519148 134.179461,256.16079 C146.179761,255.745024 159.118018,254.673428 170.166438,260.410643 C174.290671,262.553835 178.703774,266.060877 177.388196,270.994395 C175.80463,276.20451 173.873027,274.584938 179.378965,278.079803 C186.541556,282.922861 185.518329,289.493347 178.179979,293.673616 C174.102731,295.903788 169.470365,297.321566 165.394857,299.824856 C161.047881,302.331626 157.530972,305.923909 153.183996,308.428939 C143.402429,314.275749 130.766963,308.945601 123.849737,301.366146 C121.086327,298.662801 119.412272,295.672421 117.193539,292.690739 C115.248015,289.705578 112.783916,289.458555 110.029207,287.574563 C107.004769,285.967169 102.588186,282.188748 103.094579,278.354661 C103.611413,275.616524 105.261106,276.418481 106.609748,274.764117 C107.95839,273.109754 107.685181,273.113233 108.208976,270.919592" id="Fill-3" fill="#A1A12C"></path>
                        <path d="M110.505604,224.645223 C116.467821,216.366739 126.009112,211.882993 136.195438,211.188791 C147.066896,210.446117 159.488182,213.859996 167.577272,221.312709 C175.866846,228.950657 181.351388,242.003724 175.678565,252.859929 C171.768257,260.343803 154.174487,259.708461 156.083442,270.713547 C157.75356,280.338886 165.762456,307.132297 144.213051,307.746864 C143.989904,307.753789 143.787677,307.753789 143.569759,307.757251 C143.351842,307.765907 143.151358,307.778026 142.926468,307.78495 C121.377062,308.399518 126.917391,280.844389 129.77298,270.993998 C132.537914,261.45868 115.275378,260.432093 110.819405,256.071261 C102.766925,248.192679 104.097093,234.438485 109.682749,225.846659 C109.947736,225.438101 110.223183,225.0382 110.505604,224.645223" id="Fill-5" fill="#FFD0B4"></path>
                        <path d="M148.975611,408.061893 C166.344545,408.917562 180.570262,407.109615 196.740614,401.561563 C192.978889,410.508142 198.67302,413.670325 186.727401,414.657105 C174.739849,415.647336 160.108781,416.570286 147.628519,416.703122 C137.04397,416.527157 95.4448424,420.265537 93.7151127,404.789301 C93.4617684,402.513841 94.9136931,397.143478 96.0738351,395.142315 C107.257674,408.977942 133.226334,407.287304 148.975611,408.061893" id="Fill-7" fill="#A1A12C"></path>
                        <path d="M126.93458,276.422666 C127.342642,274.958425 127.340898,273.933979 125.689465,274.893852 C92.0766115,294.421142 89.8026213,332.433825 86.7316882,366.832153 C83.3154713,405.103129 106.597713,413.3685 139.814711,413.75594 C157.333504,413.961876 184.136594,419.815351 196.212808,402.902403 C208.203572,386.109876 198.328107,348.454964 194.060887,329.580387 C191.577634,318.595959 187.685344,306.901225 182.246253,297.021523 C181.353398,295.398466 161.745464,273.080566 160.406181,276.738551 C155.675096,289.65494 154.133526,294.215206 138.283604,293.990072 C134.202978,293.934225 128.849335,294.044174 126.761938,290.021437 C125.424399,287.443744 125.699929,280.757798 126.915397,276.49422 C126.922373,276.469787 126.929348,276.447099 126.93458,276.422666" id="Fill-9" fill="#C7CE58"></path>
                        <path d="M157.052211,505.614281 C157.833114,511.240993 169.25986,510.6488 173.103905,510.084556 C175.977004,509.663557 184.779434,508.650365 185.494686,505.366224 C187.852942,507.424053 189.248892,510.687231 190.833157,513.382672 C192.578094,516.345386 194.288477,519.334304 195.782904,522.435022 C197.472556,525.93927 199.188123,529.111611 198.75448,533.087518 C198.554071,534.93048 198.956616,537.445992 197.875101,539.068847 C197.040641,540.317868 194.532078,541.360758 193.130945,541.793985 C185.962882,544.005539 178.485567,544.260584 171.051444,543.33823 C168.527332,543.027285 165.733705,543.294558 163.572402,541.631525 C161.834376,540.293412 160.467796,538.724711 159.626425,536.783923 C156.784424,530.229616 152.594847,520.370206 154.574746,513.132868 C155.238168,510.706447 154.787248,507.095639 157.052211,505.614281" id="Fill-11" fill="#A1A12C"></path>
                        <path d="M163.915596,540.723634 C166.352899,546.003183 172.727518,544.825807 177.354173,544.639344 C183.512496,544.390728 190.066484,545.49352 195.802762,542.565172 C202.325097,539.233711 196.900076,531.58165 192.484443,529.344102 C186.939843,526.536511 179.112689,526.635958 173.38872,528.793594 C169.224555,530.363429 161.407952,535.296691 163.915596,540.723634" id="Fill-13" fill="#FFFFFF"></path>
                        <path d="M199.471938,537.364326 C199.471938,537.364326 197.386248,541.884829 183.667746,542.245554 C169.951,542.608039 164.701663,541.487152 162.350872,539.002546 C159.101199,535.567738 154.819215,519.965052 154.227567,514.724858 C154.227567,514.724858 153.802704,519.977369 154.311837,522.541158 C154.82097,525.104947 157.865235,543.489617 162.765201,545.470966 C167.665168,547.452315 175.909612,548.434192 183.423713,547.81656 C190.937815,547.200687 198.125368,544.552436 199.1173,542.293065 C200.110987,540.035452 199.986338,538.001314 199.471938,537.364326" id="Fill-15" fill="#DCDCDC"></path>
                        <path d="M188.456633,512.502587 C180.677582,507.684326 168.665737,512.972007 163.622516,516.274712 C162.824136,516.796103 164.706525,520.11222 165.666647,519.741713 C168.419684,518.683842 172.404705,517.681295 176.474039,517.513645 C172.447722,517.847268 168.719077,518.63187 165.577173,520.933705 C165.100553,521.282417 166.267153,523.277452 166.814319,523.020947 C169.966547,521.547304 173.314928,521.009147 177.272419,520.868321 C181.446712,520.719113 185.760378,521.701542 189.857241,521.564069 C191.610582,521.507068 189.253294,518.03336 188.680318,517.511968 C187.443172,516.387037 186.025357,515.553817 184.499142,514.95363 C186.27141,515.176604 187.923232,515.677878 189.310075,516.586541 C191.132242,517.778532 189.908861,513.401191 188.456633,512.502587" id="Fill-17" fill="#DCDCDC"></path>
                        <path d="M126.862997,504.326376 C124.891745,510.597195 114.372605,509.706562 109.462745,509.01173 C105.866472,508.502302 103.105328,506.100711 99.9648967,505.418008 C96.2015984,504.601883 94.7192452,509.83132 93.0089714,512.841106 C91.3160962,515.817969 89.6580179,518.817358 88.2191609,521.925911 C86.5924,525.438193 84.9343218,528.621254 85.4562772,532.554595 C85.6981165,534.375714 85.3466665,536.88127 86.4706104,538.466735 C87.3370564,539.686591 89.8859384,540.667327 91.305657,541.065859 C98.569536,543.103573 106.103092,543.195408 113.570533,542.121104 C116.102017,541.755494 118.920576,541.961691 121.062333,540.265329 C122.784786,538.899923 124.126211,537.31619 124.931762,535.373778 C127.65115,528.811856 131.658027,518.943849 129.509311,511.806655 C128.766394,509.337487 129.16134,505.982884 126.862997,504.326376" id="Fill-19" fill="#A1A12C"></path>
                        <path d="M121.351465,539.671575 C119.026967,544.736797 112.628443,543.751095 108.000546,543.670079 C101.839395,543.562057 95.3107558,544.745236 89.513577,542.081817 C82.9216379,539.052136 88.1825293,531.667816 92.5484362,529.449988 C98.0308758,526.666732 105.857155,526.599218 111.626201,528.5318 C115.821551,529.936087 123.741021,534.462886 121.351465,539.671575" id="Fill-21" fill="#FFFFFF"></path>
                        <path d="M85.7112671,536.920628 C85.7112671,536.920628 87.8642615,541.322546 101.402318,541.38835 C114.940374,541.452422 120.09509,540.238517 122.36067,537.743173 C125.492299,534.293676 129.384317,518.852328 129.857179,513.685009 C129.857179,513.685009 130.3872,518.841938 129.940319,521.375379 C129.491706,523.90882 126.881439,542.061971 122.088731,544.115738 C117.297756,546.169505 109.188086,547.310679 101.762594,546.863907 C94.3371014,546.417134 87.1904764,543.965082 86.1650761,541.762391 C85.1379436,539.561432 85.2158879,537.559616 85.7112671,536.920628" id="Fill-23" fill="#DCDCDC"></path>
                        <path d="M96.7947765,512.786196 C98.0363716,511.706167 99.7573946,511.003478 101.315096,510.760303 C105.896881,510.047551 111.446302,511.399265 115.655783,513.047818 C117.914187,513.933308 120.242836,514.919421 122.374797,516.059825 C123.335409,516.574683 122.647,520.004278 121.579263,519.648741 C118.523569,518.634117 114.284233,517.706701 110.250366,517.631233 C114.300039,517.876084 118.212732,518.587159 122.081521,520.862935 C122.668074,521.206733 122.220256,523.271198 121.598581,523.022993 C117.785988,521.506927 113.464113,521.020579 109.407416,520.582865 C104.676359,520.073038 99.91896,519.630293 95.163317,520.12335 C92.7960323,520.368201 93.5915664,518.538525 95.3266385,518.167894 C96.4207174,517.934782 97.1249319,517.824096 97.8835869,516.943637 C97.6640687,517.198551 95.7498697,516.178896 95.5549375,515.915597 C95.0719974,515.258188 95.3442,514.592394 95.753382,513.965172 C96.0343653,513.534167 96.3891068,513.140057 96.7947765,512.786196" id="Fill-25" fill="#DCDCDC"></path>
                        <path d="M179.921785,494.943174 C179.188221,494.902198 178.4581,494.871912 177.738312,494.887946 C172.772115,494.998402 167.897183,494.905761 162.932708,494.895072 C158.118046,494.884383 154.088607,495.050067 149.456475,493.396787 C148.307913,495.646887 149.793984,496.566168 149.71305,498.597137 C149.668279,499.749801 148.76596,501.951799 148.864113,502.896022 C149.969626,513.391144 166.07877,514.76472 173.553895,513.082935 C178.940255,511.87148 186.289676,512.005096 191.202491,509.298919 C196.061925,506.62481 193.186215,503.628239 194.097143,498.95701 C194.457038,497.118449 197.530776,495.224659 196.547524,493.052947 C194.982242,489.596737 187.565665,494.642092 185.092898,494.97346 C183.401912,495.199717 181.652378,495.039378 179.921785,494.943174" id="Fill-27" fill="#92A0A1"></path>
                        <path d="M106.823487,497.846285 C112.981163,497.957338 119.254132,496.855488 124.886004,495.349337 C128.823423,494.296072 132.243772,493.719987 136.252812,494.020176 C136.717477,496.239493 135.582019,498.3252 135.720021,500.563604 C136.624893,515.31972 115.405803,511.618545 105.702004,509.897229 C99.7923818,508.84917 84.2051633,508.963693 85.4262174,499.413168 C85.5607255,498.358168 86.1983289,493.709575 87.061277,493.149107 C88.7469954,492.054197 92.2791433,494.717725 93.8058977,495.349337 C97.8900529,497.037683 102.325327,497.764731 106.823487,497.846285" id="Fill-29" fill="#92A0A1"></path>
                        <path d="M291.206137,210.164986 C284.726638,192.457084 266.13141,195.663157 254.876267,206.064928 C246.443568,213.856616 238.86799,233.312169 250.808831,241.468462 C258.270126,246.565926 271.75725,244.276625 278.960542,239.671729 C288.596676,233.508495 295.500407,221.900722 291.206137,210.164986" id="Fill-31" fill="#FFBB9D"></path>
                        <g id="Group-35" transform="translate(0.000000, 139.339658)">
                            <mask id="mask-3" fill="white">
                                <use xlink:href="#path-2"></use>
                            </mask>
                            <g id="Clip-34"></g>
                            <path d="M6.41199522,5.99353742 C19.9215174,-7.10237787 35.4963788,3.83588595 41.2936689,18.0585942 C45.6359529,28.7125434 44.1896908,49.4727436 29.8022683,51.6216738 C20.8099106,52.9664994 9.49863686,45.0649948 4.90802253,37.8036343 C-1.23203345,28.0915863 -2.54188874,14.6729826 6.41199522,5.99353742" id="Fill-33" fill="#FFBB9D" mask="url(#mask-3)"></path>
                        </g>
                        <path d="M76.589933,241.301927 C48.7884226,228.705729 24.9965283,203.071301 22.0362225,171.579067 C20.0053554,149.959481 36.1532677,133.012565 38.6792563,112.287487 C41.5179533,89.0041867 44.283685,62.778061 58.3955183,43.1876498 C59.0730531,42.2461545 59.7749097,41.3429455 60.501088,40.4780229 C80.4866267,16.651753 118.105442,21.1121087 145.696743,24.721464 C190.405352,30.5688284 232.032047,36.938279 267.522708,68.3226155 C284.944038,83.7276364 288.19968,106.466227 285.348822,128.501741 C283.825237,140.278264 280.962219,152.637782 276.883112,163.784321 C272.286299,176.338752 271.075423,188.127456 269.091462,201.357118 C266.534202,218.40497 263.288984,236.166339 249.701806,248.075124 C233.545208,262.235839 208.227991,266.814535 187.34081,266.393385 C166.219098,265.968755 143.030036,270.034066 122.62929,263.396611 C106.797561,258.247101 91.804932,248.195203 76.589933,241.301927" id="Fill-36" fill="#FFE5CA"></path>
                        <path d="M138.262278,198.71029 C139.937121,200.078865 141.765344,201.095769 143.297384,201.511539 C146.315627,202.325754 149.92271,200.726773 152.353876,199.067159 C153.397568,198.353421 155.234606,197.055873 155.821683,195.9229 C157.750396,192.20869 150.455134,193.358986 148.54405,192.950146 C144.741275,192.137663 141.090118,191.403136 137.449539,190.083067 C135.690072,189.443821 133.424627,188.231159 133.250091,190.93886 C133.064976,193.82153 136.229548,197.048943 138.262278,198.71029" id="Fill-38" fill="#F9A187"></path>
                        <path d="M209.66123,186.354968 C207.077145,185.826095 204.436475,185.563421 201.804378,185.466461 C201.166502,185.441781 199.372903,185.369501 199.0231,184.720751 C197.068318,181.087395 210.016177,182.011159 211.221626,182.270307 C214.971722,183.077719 218.191968,185.411811 220.909801,188.100248 C221.338481,188.525109 226.431203,193.764475 225.839624,194.425566 C225.513827,194.786962 221.323049,191.273484 220.853215,190.957923 C217.266018,188.555078 213.539929,187.148277 209.66123,186.354968" id="Fill-58" fill="#1F191A"></path>
                        <path d="M88.9323455,153.073482 C91.5246101,153.635157 94.0614992,154.442665 96.5205166,155.385301 C97.1175335,155.614855 98.7978332,156.253047 99.3827367,155.842781 C102.644698,153.545614 90.3565336,149.27689 89.1434645,149.026171 C85.3658185,148.244712 81.4618473,148.954538 77.876285,150.160916 C77.3121473,150.351397 70.5130768,152.778807 70.7934151,153.566779 C70.9456977,153.996582 76.2184816,152.671356 76.7791583,152.589954 C81.0482617,151.963158 85.0439486,152.230157 88.9323455,153.073482" id="Fill-60" fill="#1F191A"></path>
                        <path d="M138.851793,221.548252 C129.064102,219.936944 119.816205,215.439217 113.909809,207.414031 C110.420299,202.67243 105.323595,198.293156 99.6818728,196.462361 C88.1772866,192.725868 81.8529855,200.256339 87.393714,210.800391 C100.596041,235.924606 127.481285,243.289591 154.040912,243.32443 C164.775856,243.340107 179.682888,239.560065 187.549956,231.674236 C193.299637,225.911849 190.241963,216.468712 181.746296,215.54025 C174.075991,214.700628 165.472365,219.64778 158.070216,221.166764 C151.963574,222.41923 145.291018,222.607361 138.851793,221.548252" id="Fill-62" fill="#CB4E53"></path>
                        <path d="M171.757679,240.379252 C165.594281,242.358062 159.024391,243.329571 153.543692,243.324458 C131.994383,243.295483 110.229667,238.523158 95.7679181,223.517603 C121.854656,220.103686 151.794385,225.469143 171.757679,240.379252" id="Fill-64" fill="#FF797E"></path>
                        <path d="M220.016715,127.151118 C223.330496,126.477826 227.343126,126.887354 229.756365,129.349729 C236.024773,135.744268 233.765457,145.238032 234.021996,152.857685 C233.66638,142.331424 224.673347,138.178878 216.64101,133.74348 C212.053378,131.209959 215.337082,128.102057 220.016715,127.151118" id="Fill-66" fill="#1F191A"></path>
                        <path d="M111.219037,110.325269 C112.6983,110.74339 114.082918,110.942908 114.982044,110.4311 C118.482148,108.435915 115.500837,103.356 113.199567,101.555128 C105.428178,95.4758858 89.2263923,106.785983 86.3993174,114.383302 C87.2914322,111.987345 103.223305,108.546951 105.549113,108.673602 C106.91971,108.748205 109.161389,109.745797 111.219037,110.325269" id="Fill-68" fill="#1F191A"></path>
                        <path d="M285.869744,170.285173 C284.134524,186.032767 281.96463,198.56742 279.523499,198.184097 C272.059273,197.014963 259.676272,206.354098 260.669068,214.208729 C260.004886,208.992055 261.844427,204.179613 262.579896,199.222553 C258.810401,200.917885 255.407771,203.571523 252.405041,206.620681 C255.68944,199.457774 264.261216,197.161322 268.077656,190.639609 C271.612428,184.595307 271.629815,174.391953 272.266178,167.560097 C274.024001,148.68668 274.576906,128.25558 263.023264,112.084588 C265.118394,123.62086 266.278105,133.068022 260.917702,143.837648 C262.976319,133.44786 258.194902,121.822728 252.37896,113.375689 C250.219498,110.241155 247.514086,106.740721 244.560039,104.311849 C242.951745,102.989386 234.392139,99.6039494 233.853143,98.4992831 C235.873509,102.623487 239.62214,106.756403 243.582892,108.789756 C213.073973,101.102393 183.989048,94.6346932 154.603328,82.4467733 C138.713376,75.855365 104.031584,65.882005 98.1634816,46.9702562 C98.1686977,46.5294351 98.1791299,46.5189809 98.1947782,46.9388935 C99.0450011,54.4711848 101.9295,64.8731693 97.862687,71.5029099 C95.1903096,65.2111902 94.0618952,56.7327888 89.0544475,51.334908 C88.8684069,58.6093277 88.9153517,65.979578 88.4928483,73.2296044 C85.6987621,67.2915871 83.2211187,59.2121898 76.9287739,55.4329763 C78.2971285,65.3505803 79.333392,82.0355726 73.300113,90.226482 C71.491868,81.305517 69.0403051,72.2434196 62.0020592,66.0614697 C61.8281895,79.1798184 58.3021118,91.7946204 53.7502027,103.999964 C50.1615319,113.621364 42.1513543,124.927642 42.2695857,135.320914 C42.3582593,142.811389 46.8110626,148.977657 41.521946,156.060416 C41.8975045,151.413499 40.4700342,146.888548 37.7472346,143.109335 C38.3088337,149.017732 37.3316859,154.748406 33.86994,159.654937 C34.6019315,153.594954 31.2671104,140.041011 23.9419795,140.670009 C29.8900623,126.330254 28.8311958,108.226968 32.745003,92.9846631 C35.947683,80.5179631 39.6545853,67.7829372 45.0219432,56.0497774 C77.1148145,-14.0930519 194.530769,-1.52703641 248.013092,33.172381 C275.55927,51.0456736 308.782294,74.9057701 304.649411,112.194358 C302.14221,104.881606 298.118865,98.0654315 290.691151,95.2741452 C294.636255,117.733371 288.380423,147.503607 285.869744,170.285173" id="Fill-70" fill="#BC6000"></path>
                        <path d="M24.9829352,47.8330171 C30.2000131,46.4273977 72.2402574,39.9674928 73.366258,46.6634159 C70.9841336,32.4953322 72.4224301,10.6050834 83.2764505,0 C75.15155,5.13645483 69.7748541,13.9373104 64.7069843,21.4129676 C62.7447245,15.5107649 61.0722061,9.39876827 62.6475658,3.41439628 C59.135971,9.11030161 56.4172609,15.4460784 55.7597044,22.3220746 C45.7731728,22.3378092 31.9020262,25.0301647 26.5704397,34.0513039 C32.3340356,32.1369342 38.677114,31.9079092 44.7963804,32.191131 C45.4417921,32.178893 45.4417921,32.1579136 44.7963804,32.1264445 C37.5198839,36.469179 27.8612631,38.9517405 24.9829352,47.8330171" id="Fill-72" fill="#A8641E"></path>
                        <path d="M180.401501,226.718371 C173.902261,231.978146 146.322486,236.264145 128.01967,229.281668 C109.718586,222.299191 93.4886699,213.24117 93.6878206,206.31923 C93.7588221,203.847603 95.928699,200.199834 98.6735152,196.531309 C99.0614261,196.633357 99.4424101,196.719838 99.8424432,196.849559 C105.45503,198.66912 110.523848,203.015655 113.994266,207.725411 C119.866614,215.692042 129.065644,220.157921 138.799785,221.75782 C145.202047,222.811159 151.838095,222.62436 157.911325,221.380763 C165.272974,219.872534 173.829528,214.960413 181.459597,215.79236 C182.063976,215.858086 182.635452,215.979159 183.182684,216.127906 C183.348931,220.675078 182.734162,224.831355 180.401501,226.718371" id="Fill-74" fill="#FFFFFF"></path>
                        <path d="M152.776506,294.64049 C149.998452,295.524629 141.26018,300.041464 140.3225,295.176124 C135.153011,297.74957 129.021351,295.778712 124.723066,292.436151 C119.971685,288.739935 115.024371,281.048783 117.055429,274.825474 C118.321997,270.938695 125.391338,265.700815 129.192793,269.733519 C132.478173,273.218572 127.901733,280.734613 129.938039,285.153592 C131.883376,289.364841 137.143833,291.605232 139.986614,295.267113 C141.478856,289.962278 151.564169,290.274732 154.804065,285.059169 C156.298056,282.650534 158.960648,275.759399 162.296761,274.828907 C165.027581,274.204001 169.932909,277.436688 169.66525,280.724312 C169.416835,285.80425 157.627602,293.095393 152.776506,294.64049" id="Fill-76" fill="#A1A12C"></path>
                        <path d="M64.7139827,342.573026 C62.4720001,348.568676 61.2092543,354.833539 64.2895888,360.674607 C71.23643,373.852183 107.871712,411.637627 124.896169,397.042771 C121.031402,388.134403 119.561677,377.998074 125.939761,370.10056 C126.525912,369.376288 110.691149,365.648981 109.016184,365.185239 C103.121631,363.547378 95.505152,360.975084 91.4838458,356.096238 C85.5353739,348.879574 93.7553968,334.111032 96.6148377,326.635576 C100.443079,316.620827 102.608532,306.883976 108.784855,297.876607 C112.159134,292.957812 116.982267,287.248745 117.439708,280.759827 C104.608749,280.64172 94.0858675,293.409396 87.5564629,303.142774 C81.221862,312.587832 73.3966645,321.605622 69.0796741,332.221326 C67.7577914,335.474469 66.0584765,338.974247 64.7139827,342.573026" id="Fill-78" fill="#A1A12C"></path>
                        <path d="M221.303344,340.57572 C223.688204,346.507979 225.094973,352.731392 222.12396,358.625524 C215.422556,371.919816 179.397701,410.400647 161.958305,396.206898 C165.651951,387.23832 166.911744,377.092996 160.324072,369.351423 C159.718672,368.640869 175.564079,364.583779 177.238555,364.084659 C183.13159,362.323871 190.735846,359.596037 194.674451,354.641223 C200.499248,347.315585 191.911653,332.759626 188.872401,325.362933 C184.804317,315.453304 182.415957,305.786304 176.006756,296.933841 C172.507329,292.100341 167.55214,288.272015 166.950238,281.809439 C179.854377,281.414302 190.693853,292.162731 197.472244,301.73268 C204.049417,311.018407 212.115597,319.844874 216.687599,330.34201 C218.08912,333.560299 219.872078,337.014285 221.303344,340.57572" id="Fill-80" fill="#A1A12C"></path>
                        <path d="M107.089802,394.071747 C106.422588,396.40807 105.994532,398.759956 106.254485,401.191391 C119.456655,406.292908 135.409132,402.720117 149.259452,403.726585 C156.479226,404.252301 172.142288,409.644346 178.181874,404.088015 C181.231994,401.283045 176.5459,392.425427 176.038124,388.110754 C174.92379,378.635766 177.450538,371.7565 181.12628,363.275876 C175.154282,358.822856 167.756007,359.217143 160.657545,358.874736 C149.69964,358.34902 138.811056,357.472251 127.837554,357.70571 C124.134084,357.78353 111.557536,355.357283 108.776034,357.669394 C104.310033,361.380532 110.455333,376.041774 110.351352,381.245322 C110.262968,385.70353 108.290787,389.859105 107.089802,394.071747" id="Fill-82" fill="#BABA44"></path>
                        <path d="M109.780807,447.134725 C97.8260751,447.263817 92.399095,461.512093 95.6594765,471.446986 C98.7958027,481.004932 107.385318,481.29754 116.547934,479.631397 C134.972758,476.28362 126.694255,447.444545 109.780807,447.134725" id="Fill-84" fill="#92A0A1"></path>
                        <path d="M175.360309,446.094877 C163.405613,446.223966 157.980397,460.47195 161.239021,470.408361 C164.375338,479.964391 172.964827,480.256992 182.127415,478.592605 C200.553931,475.243175 192.273705,446.406411 175.360309,446.094877" id="Fill-86" fill="#92A0A1"></path>
                    </g>
                    <g id="Page-1" transform="translate(273.430413, 423.995134) rotate(8.000000) translate(-273.430413, -423.995134) translate(102.930413, 263.995134)">
                        <g id="Group-3" transform="translate(0.000000, 231.716612)">
                            <mask id="mask-5" fill="white">
                                <use xlink:href="#path-4"></use>
                            </mask>
                            <g id="Clip-2"></g>
                            <path d="M340.856365,11.2451568 C343.930183,27.3962738 270.13353,54.9915025 176.055893,72.8795027 C81.9463261,90.7726774 3.16701611,92.1896085 0.0923353471,76.0393539 C-2.98148247,59.8899617 70.8143076,32.2938707 164.921285,14.3998336 C258.998923,-3.48902907 337.781684,-4.90251053 340.856365,11.2451568" id="Fill-1" mask="url(#mask-5)"></path>
                        </g>
                        <path d="M248.472561,172.010589 C248.472561,172.010589 248.464698,182.879479 252.260768,182.879479 C256.057711,182.879479 254.53841,173.786169 254.53841,173.786169 C254.53841,173.786169 263.143126,179.342271 266.432471,178.332388 C269.722689,177.322505 263.903214,168.985299 263.903214,168.985299 C263.903214,168.985299 268.710113,171.007682 269.975178,168.985299 C271.241991,166.963789 268.710113,164.437336 264.913169,163.175418 C264.913169,163.175418 270.484524,163.932395 267.951772,160.901001 C265.419894,157.870479 263.396489,159.639083 263.396489,159.639083 C263.396489,159.639083 265.675004,157.11263 263.648977,156.101875 C261.624698,155.09112 257.574392,157.617572 257.574392,157.617572 C257.574392,157.617572 248.732913,163.920185 248.472561,172.010589" id="Fill-4" fill="#FFE5CA"></path>
                        <path d="M254.917466,173.951753 C254.917466,173.951753 263.555149,179.406682 266.857096,178.415188 C266.980755,178.377514 267.086873,178.327854 267.185976,178.271344 C261.6915,179.214034 255.50594,172.761618 254.921851,172.547565 C254.336884,172.333512 253.532665,172.476499 254.409676,176.971614 C255.286688,181.466729 252.631098,182.879479 252.631098,182.879479 C256.442588,182.879479 254.917466,173.951753 254.917466,173.951753" id="Fill-6" fill="#FFE5CA"></path>
                        <path d="M265.609573,159.42 C266.299852,159.268517 266.943003,159.56692 268.22561,160.019544 C265.927452,158.011026 264.192976,159.496654 264.192976,159.496654 C264.192976,159.496654 265.482975,158.076729 265.32958,156.90228 C265.32958,156.90228 264.146773,159.343346 263.222704,159.723878 C262.298636,160.104411 264.916521,159.572395 265.609573,159.42" id="Fill-8" fill="#FFE5CA"></path>
                        <path d="M265.455586,162.816966 C265.455586,162.816966 269.155105,163.231487 269.461648,162.09772 C269.274475,162.124771 269.155105,163.231487 265.260774,162.44143 C264.320138,162.25048 264.067073,162.640337 264.067073,162.640337 C264.067073,162.640337 269.765325,164.63179 270.304878,165.214984 C269.26779,164.261028 267.535491,163.394591 265.455586,162.816966" id="Fill-10" fill="#FFE5CA"></path>
                        <path d="M269.265244,166.254072 C269.367128,166.387075 269.50436,166.557485 269.658226,166.742443 C269.539707,166.578267 269.409753,166.41513 269.265244,166.254072" id="Fill-12" fill="#FFE5CA"></path>
                        <path d="M266.684128,170.384749 C266.584684,170.343534 264.00545,169.275474 263.296713,168.487144 C262.57298,167.683906 263.494022,170.240938 263.888642,170.753045 C264.283262,171.264276 267.426802,175.774157 267.171088,177.684039 C267.43943,175.054225 263.991243,169.556081 263.991243,169.556081 C263.991243,169.556081 265.309273,170.169909 266.684128,170.384749" id="Fill-14" fill="#FFE5CA"></path>
                        <path d="M258.868614,156.90228 C257.786793,157.385265 256.946552,157.939964 256.946552,157.939964 C256.946552,157.939964 248.714954,164.183348 248.472561,172.199694 C248.472561,172.199694 248.472561,172.718104 248.509164,173.527687 C248.509164,173.527687 258.932059,165.760178 258.868614,156.90228" id="Fill-16" fill="#FFE5CA"></path>
                        <path d="M94.0749102,186.433297 C94.0749102,186.433297 96.2713123,197.932233 91.7367206,199.937951 C87.2029988,201.94367 85.6903085,193.925984 85.6903085,193.925984 C85.6903085,193.925984 84.6821382,201.694577 80.1466767,203.447743 C75.6094754,205.200044 76.3688651,195.678285 78.1312059,192.671869 C78.1312059,192.671869 69.8161932,202.442721 65.2789919,200.939513 C60.7435304,199.438035 70.5712335,188.914714 70.5712335,188.914714 C70.5712335,188.914714 58.4775393,195.680015 58.2244094,191.421214 C57.9721494,187.161548 67.5493323,181.648632 67.5493323,181.648632 C67.5493323,181.648632 57.2179789,183.15184 59.4848398,179.39382 C61.7525705,175.6358 80.5363749,174.566775 80.5363749,174.566775 C80.5363749,174.566775 93.9583487,176.581143 94.0749102,186.433297" id="Fill-18" fill="#FFE5CA"></path>
                        <path d="M85.9070292,193.063577 C85.6087685,191.623247 84.7164312,192.278431 84.7164312,193.325292 C84.7164312,194.360502 84.2225897,198.644745 84.2103659,198.748715 C85.0195814,196.449743 85.2697618,194.344369 85.2697618,194.344369 C85.2697618,194.344369 86.0952757,199.169072 88.3689024,200.543974 C86.7814383,199.313374 86.2052899,194.503907 85.9070292,193.063577" id="Fill-20" fill="#FFE5CA"></path>
                        <g id="Group-26" transform="translate(72.774390, 190.153094)" fill="#FFE5CA">
                            <path d="M4.43823716,8.87531067 C4.450063,8.71873901 4.45552107,8.55019422 4.44369524,8.35494015 C4.44369524,8.34573005 4.44460492,8.33651995 4.44460492,8.32730985 C4.43914684,8.51151181 4.43732748,8.69387174 4.43823716,8.87531067" id="Fill-22"></path>
                            <path d="M7.24942088,0.820527606 C6.91738773,-0.121665391 6.18600511,0.820527606 4.92336944,2.16612288 C3.66073377,3.51263917 0.422273399,7.45179796 0.422273399,7.45179796 L0.422273399,7.45271897 C3.42967508,4.94204634 5.87762363,2.01323526 5.87762363,2.01323526 C5.15897652,3.2612035 4.60134276,5.56464894 4.46761982,7.79901865 C4.75962706,5.33071246 7.55780236,1.69456588 7.24942088,0.820527606" id="Fill-24"></path>
                        </g>
                        <g id="Group-33" transform="translate(63.417683, 188.074919)" fill="#FFE5CA">
                            <path d="M7.3822688,1.07242378 C5.35671494,2.35078534 0.50855437,5.12486678 0.50855437,5.12486678 L0.50855437,5.12578779 C3.86310722,3.92939609 7.59885925,1.69594739 7.59885925,1.69594739 C7.59885925,1.69594739 4.98764482,4.68738713 3.08511433,7.79947915 C4.58132114,5.53471612 9.12712144,1.3570158 9.59755589,0.669021498 C10.1043775,-0.0714703583 9.40782266,-0.205937785 7.3822688,1.07242378" id="Fill-27"></path>
                            <path d="M2.57915904,8.65767606 C2.64326982,8.55912801 2.70651423,8.44768583 2.76975864,8.32795456 C2.70564787,8.43755472 2.64067073,8.5480759 2.57915904,8.65767606" id="Fill-29"></path>
                            <path d="M2.86731098,8.15940977 C2.88810366,8.12256938 2.91149543,8.08296596 2.93402083,8.04520456 C2.91149543,8.08296596 2.88983638,8.12072736 2.86731098,8.15940977" id="Fill-31"></path>
                        </g>
                        <g id="Group-38" transform="translate(61.338415, 179.762215)" fill="#FFE5CA">
                            <path d="M8.68190159,0.217169381 C7.93149366,0.595570575 1.7345464,1.52901792 1.70928329,1.53334745 C4.14764122,1.60868132 6.82646652,1.24759826 6.82646652,1.24759826 C6.82646652,1.24759826 3.34296439,3.11535885 0.480747622,5.51651792 C2.35957445,4.04794028 7.76775128,1.52209066 8.40868573,1.16620304 C9.09266104,0.786070033 9.43418085,-0.16209772 8.68190159,0.217169381" id="Fill-34"></path>
                            <path d="M0.46736753,5.52803447 C0.359765396,5.61808876 0.254034604,5.70814305 0.149239482,5.79992915 C0.150175152,5.79819734 0.152046494,5.79819734 0.152982165,5.79646553 C0.240935213,5.71160668 0.347601677,5.62155239 0.46736753,5.52803447" id="Fill-36"></path>
                        </g>
                        <path d="M94.6067073,187.035831 L94.6067073,187.035831 C94.5715642,186.824416 94.5495998,186.703228 94.5495998,186.703228 C94.4309919,176.626965 80.8745474,174.566775 80.8745474,174.566775 C80.8745474,174.566775 78.2581448,174.718039 74.8536585,175.103716 C76.1021166,176.957798 80.8235899,180.444817 83.0446328,181.985757 C85.9333943,183.989333 94.6067073,187.035831 94.6067073,187.035831" id="Fill-39" fill="#FFE5CA"></path>
                        <path d="M119.225968,135.673924 C119.225968,135.673924 90.6478894,145.483393 77.972561,175.274218 C77.972561,175.274218 79.3043482,180.039263 93.2457393,187.011675 C93.2457393,187.011675 108.154838,184.290523 119.56151,174.782923 C119.56151,174.782923 117.087326,237.999985 138.27312,280.817917 C143.730854,291.84611 162.321393,289.688909 167.388238,285.252548 C172.456813,280.817917 168.020405,273.845504 170.555989,264.971052 C173.093304,256.097465 179.430535,252.292523 190.201581,252.928266 C200.973491,253.562279 202.87518,257.365491 200.973491,264.971052 C199.071803,272.576613 204.777733,280.814457 220.619948,273.843774 C236.461298,266.873091 244.127722,240.698648 241.593003,217.881101 C239.059148,195.064419 226.211725,161.073366 226.211725,161.073366 C226.211725,161.073366 242.797665,171.182975 248.501865,172.450136 C248.501865,172.450136 258.63988,164.827276 259.908537,155.320541 C259.908537,155.320541 247.234938,124.26515 220.619948,112.221498 C220.619948,112.221498 199.075262,114.121807 184.49911,122.361381 C184.49911,122.361381 171.824647,143.911768 158.516287,129.334659 C158.516287,129.334659 144.574031,126.799472 119.225968,135.673924" id="Fill-41" fill="#0092D0"></path>
                        <path d="M217.087165,146.511401 C217.087165,146.511401 222.568373,161.239056 216.243902,166.437052 C216.243902,166.437052 225.941424,170.768716 231.844263,190.694368 C237.747102,210.62002 244.456101,249.306972 221.284927,273.28013 C236.732657,266.298355 244.207338,240.082262 241.735735,217.228405 C239.264975,194.375415 226.737464,160.330273 226.737464,160.330273 C226.737464,160.330273 242.911243,170.45597 248.472561,171.725147 C248.472561,171.725147 221.303479,153.442062 217.087165,146.511401" id="Fill-43" fill="#0092D0"></path>
                        <path d="M125.243306,164.175896 C118.359039,176.17994 93.5670732,185.988101 93.5670732,185.988101 C93.5670732,185.988101 108.402668,183.290621 119.753103,173.865732 C119.753103,173.865732 117.291117,236.532844 138.373324,278.978286 C139.35175,280.946949 140.758722,282.486897 142.429878,283.67101 C120.462183,253.973862 125.243306,164.175896 125.243306,164.175896" id="Fill-45" fill="#0092D0"></path>
                        <path d="M197.458299,249.299179 C186.553579,248.444669 173.904104,255.280754 172.595538,254.426243 C171.286972,253.571733 176.085048,248.017413 174.340293,248.017413 C172.595538,248.017413 165.616518,249.726435 167.797462,264.680371 C169.978405,279.634307 166.341463,285.749186 166.341463,285.749186 L166.341463,285.749186 C167.246119,285.32193 168.018173,284.851095 168.604411,284.349497 C173.717416,279.968421 169.241246,273.080211 171.799057,264.312931 C174.358613,255.546507 180.751396,251.787514 191.617731,252.414725 C202.484066,253.041936 204.401552,256.799219 202.484066,264.312931 C201.520961,268.084741 202.492789,272.012927 205.720586,274.12015 C200.898956,269.459649 204.873508,262.544094 206.618263,257.844286 C208.363018,253.144477 208.363018,250.15369 206.618263,246.308392 C204.873508,242.463094 208.363018,250.15369 197.458299,249.299179" id="Fill-47" fill="#0092D0"></path>
                        <path d="M256.606633,164.175896 C258.196281,161.67454 259.506655,158.784937 259.908537,155.695539 C259.908537,155.695539 247.431462,124.369696 221.226539,112.221498 C221.226539,112.221498 218.868888,112.436125 215.204268,113.025911 C215.214486,113.032018 254.451626,127.077826 256.606633,164.175896" id="Fill-49" fill="#0092D0"></path>
                        <path d="M119.064482,134.726624 C119.064482,134.726624 90.5982717,144.453106 77.972561,173.991904 C77.972561,173.991904 78.3584734,175.353834 80.85829,177.684039 C80.85829,177.684039 97.2621523,143.85619 127.875,131.964169 C125.112453,132.730899 122.1759,133.642569 119.064482,134.726624" id="Fill-51" fill="#0092D0"></path>
                        <path d="M129.170279,162.09772 C129.170279,162.09772 137.042686,163.381475 137.879383,167.712956 C138.71608,172.045303 132.235406,247.905594 143.469512,274.319218 C143.469512,274.319218 136.428003,274.334821 134.73887,257.435371 C133.048908,240.535922 127.689905,221.4781 129.170279,162.09772" id="Fill-53" fill="#81C1E8"></path>
                        <path d="M188.17378,176.124975 C188.17378,181.577812 183.750992,185.996743 178.297256,185.996743 C172.842656,185.996743 168.420732,181.576948 168.420732,176.124975 C168.420732,170.673003 172.842656,166.254072 178.297256,166.254072 C183.750992,166.254072 188.17378,170.673003 188.17378,176.124975" id="Fill-55"></path>
                        <path d="M182.97561,174.566775 C182.97561,178.584174 179.717494,181.840391 175.697751,181.840391 C171.678848,181.840391 168.420732,178.584174 168.420732,174.566775 C168.420732,170.549376 171.678848,167.29316 175.697751,167.29316 C179.717494,167.29316 182.97561,170.549376 182.97561,174.566775" id="Fill-57" fill="#C9E1F4"></path>
                        <path d="M175.914696,167.29316 C175.48663,167.29316 175.068845,167.331766 174.658537,167.389677 C178.5345,167.932691 181.502925,170.933954 181.502925,174.567195 C181.502925,178.199596 178.5345,181.20086 174.658537,181.743874 C175.068845,181.801784 175.48663,181.840391 175.914696,181.840391 C180.387896,181.840391 184.015244,178.583986 184.015244,174.567195 C184.015244,170.549564 180.387896,167.29316 175.914696,167.29316" id="Fill-59" fill="#A5CCEC"></path>
                        <path d="M191.292683,213.532141 C191.292683,218.984978 186.869894,223.403909 181.416159,223.403909 C175.961559,223.403909 171.539634,218.984114 171.539634,213.532141 C171.539634,208.080169 175.961559,203.661238 181.416159,203.661238 C186.869894,203.661238 191.292683,208.080169 191.292683,213.532141" id="Fill-61"></path>
                        <path d="M187.134146,210.934853 C187.134146,214.952253 183.87603,218.208469 179.856287,218.208469 C175.837384,218.208469 172.579268,214.952253 172.579268,210.934853 C172.579268,206.917454 175.837384,203.661238 179.856287,203.661238 C183.87603,203.661238 187.134146,206.917454 187.134146,210.934853" id="Fill-63" fill="#C9E1F4"></path>
                        <path d="M180.073233,203.661238 C179.645167,203.661238 179.227381,203.699845 178.817073,203.757755 C182.693036,204.300769 185.661461,207.302032 185.661461,210.935273 C185.661461,214.567675 182.693036,217.568938 178.817073,218.111952 C179.227381,218.169862 179.645167,218.208469 180.073233,218.208469 C184.546432,218.208469 188.17378,214.952065 188.17378,210.935273 C188.17378,206.917642 184.546432,203.661238 180.073233,203.661238" id="Fill-65" fill="#A5CCEC"></path>
                        <path d="M196.291355,129.414301 C198.054306,137.431112 187.937174,146.466833 173.692977,149.596837 C159.44878,152.725979 146.472458,148.764985 144.708644,140.748175 C142.945693,132.732227 153.062825,123.695643 167.307885,120.566501 C181.552082,117.436497 194.528404,121.397491 196.291355,129.414301" id="Fill-67" fill="#0092D0"></path>
                        <path d="M223.402157,68.3042697 C217.427085,32.5086097 183.23233,8.39047833 147.024956,14.4365717 C110.818441,20.4835253 86.3109247,54.4046211 92.2859972,90.2011414 C92.6240141,92.2262558 93.025678,94.2160984 93.4772273,96.1723899 C89.2223426,97.8766174 86.6188383,102.828426 87.5004346,108.110585 C88.5007238,114.099039 93.6002208,118.237878 98.8923788,117.355224 C99.6862455,117.221879 100.433667,116.972396 101.136364,116.643767 C112.73301,137.551309 134.477045,149.778561 168.664059,144.0697 C205.353946,137.942739 220.789192,119.574763 224.178822,96.2351908 C224.771427,96.2601391 225.370912,96.2334702 225.974698,96.1319564 C231.266856,95.2484422 234.745936,89.6763667 233.746507,83.6879125 C232.867491,78.4212387 228.816449,74.5878022 224.25365,74.3400397 C224.023145,72.344175 223.741034,70.331965 223.402157,68.3042697 Z" id="Fill-69" fill="#FFE5CA"></path>
                        <path d="M191.292683,82.0883596 C191.292683,86.1045978 188.965545,89.3615635 186.094961,89.3615635 C183.223479,89.3615635 180.896341,86.1045978 180.896341,82.0883596 C180.896341,78.071298 183.223479,74.8143322 186.094961,74.8143322 C188.965545,74.8143322 191.292683,78.071298 191.292683,82.0883596" id="Fill-71" fill="#1F191A"></path>
                        <path d="M194.56963,71.6970684 C194.320919,71.6970684 194.073972,71.5826938 193.899345,71.3616335 C191.144121,67.8583091 183.580483,64.2233097 183.504635,64.1877479 C183.058366,63.9743767 182.854635,63.4073091 183.049547,62.9219376 C183.245341,62.434644 183.765694,62.2135837 184.21108,62.4259938 C184.537403,62.5816971 192.220986,66.2743644 195.239033,70.1102403 C195.555654,70.5139155 195.513321,71.1203895 195.1429,71.4654357 C194.977093,71.621139 194.772479,71.6970684 194.56963,71.6970684" id="Fill-73" fill="#1F191A"></path>
                        <path d="M139.252514,89.9308116 C139.679282,93.939743 137.723631,97.3995622 134.885041,97.6588423 C132.046451,97.9181223 129.399416,94.8777751 128.972648,90.8696695 C128.547661,86.8607381 130.503312,83.4017445 133.341903,83.1424645 C136.181384,82.8831845 138.826636,85.9227059 139.252514,89.9308116" id="Fill-75" fill="#1F191A"></path>
                        <path d="M121.454739,80.009772 C121.284857,80.009772 121.113259,79.9590678 120.963968,79.8542218 C120.575299,79.5826536 120.48092,79.0463923 120.752903,78.6579467 C123.338885,74.9548219 130.454197,70.9362999 130.756209,70.7669995 C131.170618,70.5366821 131.693134,70.6827789 131.923934,71.0970064 C132.155591,71.5112339 132.008017,72.0346042 131.594466,72.2666404 C131.52411,72.3061725 124.520337,76.2619588 122.158291,79.6428111 C121.991841,79.8817224 121.725006,80.009772 121.454739,80.009772" id="Fill-77" fill="#1F191A"></path>
                        <path d="M158.655904,125.729642 C147.492722,125.729642 140.993078,118.6696 140.676716,118.31681 C140.202604,117.789751 140.250877,116.983861 140.786193,116.517158 C141.319784,116.050456 142.134395,116.098061 142.609369,116.62257 C142.942971,116.991512 150.952015,125.614879 164.464207,122.497579 C177.980708,119.376879 181.342593,108.41405 181.479655,107.948197 C181.67792,107.273222 182.395984,106.881328 183.078705,107.076 C183.76315,107.269821 184.160542,107.97285 183.965725,108.649526 C183.814871,109.172335 180.095248,121.508068 165.052968,124.980708 C162.778954,125.506067 160.643726,125.729642 158.655904,125.729642" id="Fill-79" fill="#CB4E53"></path>
                        <path d="M151.579196,58.1889251 C151.02954,58.1889251 150.481604,58.1718507 149.931947,58.1385558 C141.690539,57.6331554 135.228849,53.4772619 131.738229,46.4358056 C128.560715,40.0278071 128.062669,33.9928828 130.256135,28.4992151 C134.324797,18.3101048 146.160047,13.8050411 146.662394,13.6180771 C147.551822,13.2851276 148.543613,13.7341826 148.876503,14.6177795 C149.210254,15.499669 148.760379,16.4831508 147.87181,16.8152466 C147.762567,16.8553713 136.940612,20.9984591 133.448272,29.7738143 C131.635007,34.330101 132.098645,39.4284979 134.825424,44.9281417 C138.7685,52.8813676 146.115318,54.4829403 150.144412,54.7305182 C157.843045,55.1992088 165.97951,51.7092144 169.473571,46.4229998 C171.626607,43.1660701 171.791762,39.5497257 169.950972,35.964115 C166.746793,29.7225913 162.950808,26.7251915 158.966443,27.3108413 C154.715421,27.929786 151.000293,32.4775355 150.32419,36.1715682 C149.856251,38.7267426 150.643318,40.9199412 152.283686,41.6285261 C153.930935,42.3388185 156.793622,41.6456005 159.872215,37.5537357 C160.440795,36.7973426 161.518604,36.6428199 162.279865,37.2071267 C163.041127,37.7705798 163.19768,38.8411407 162.629099,39.5966801 C158.348832,45.285849 153.770081,45.994434 150.910835,44.7599594 C147.77547,43.4051108 146.178971,39.708517 146.938512,35.5611607 C147.842564,30.6241163 152.690552,24.7727411 158.466677,23.9318301 C162.362443,23.3615472 168.042227,24.7232256 173.016662,34.4137652 C175.415711,39.0870111 175.179161,44.0172258 172.350021,48.2960545 C168.410385,54.2558517 160.03995,58.1880714 151.579196,58.1889251" id="Fill-81" fill="#BC6000"></path>
                        <path d="M125.167778,47.7980456 C124.523945,47.7980456 123.912222,47.4037908 123.647937,46.7492596 C118.178649,33.2029384 125.56544,21.0382156 125.882417,20.5261964 C126.373936,19.7342734 127.393202,19.5038648 128.158062,20.0141772 C128.922923,20.5236363 129.144395,21.5783959 128.653699,22.3711723 C128.555724,22.5307516 121.909094,33.5997533 126.685973,45.4325169 C127.037529,46.3020962 126.641514,47.301387 125.802555,47.665774 C125.595079,47.7553773 125.379371,47.7980456 125.167778,47.7980456" id="Fill-83" fill="#BC6000"></path>
                        <path d="M116.185243,41.5635179 C115.428413,41.5635179 114.717788,41.1290581 114.446105,40.432041 C110.806114,31.0723405 117.132436,24.7042549 117.404118,24.4374213 C118.104579,23.7489565 119.273553,23.7164575 120.016521,24.3647263 C120.757642,25.0104293 120.794605,26.0888816 120.09969,26.7773464 C119.877908,27.0014182 115.076335,31.9498124 117.924381,39.2731965 C118.269991,40.1617865 117.771906,41.1418867 116.810852,41.4617449 C116.60478,41.531019 116.393164,41.5635179 116.185243,41.5635179" id="Fill-85" fill="#BC6000"></path>
                        <path d="M138.66759,21.8208469 C138.394313,21.8208469 138.117672,21.7520035 137.862053,21.6064737 C132.771534,18.715921 124.09394,10.7135256 127.680175,1.1137883 C128.015675,0.216209378 128.990222,-0.22909434 129.855459,0.117737127 C130.721537,0.46544003 131.152053,1.47456274 130.816553,2.3730131 C129.414012,6.12628729 130.366697,9.93446195 133.647702,13.6929648 C136.277047,16.7037756 139.4479,18.5329195 139.479853,18.5503482 C140.292116,19.0148235 140.589778,20.0744895 140.142444,20.9162965 C139.836374,21.4940585 139.261231,21.8208469 138.66759,21.8208469" id="Fill-87" fill="#BC6000"></path>
                        <path d="M234.785655,83.6329456 C233.906211,78.3614442 229.849224,74.5244939 225.27887,74.2765043 C225.048888,72.2788102 224.765502,70.2656168 224.426989,68.236063 C220.601708,45.3314672 205.217891,27.2204762 185.150883,18.7035831 C186.937335,19.9590305 224.197868,46.7470746 216.910798,92.1334782 C209.445426,138.63153 168.259694,146.758356 126.835366,140.111718 C138.088981,145.241142 152.242781,146.968458 169.608577,144.07008 C206.351436,137.937503 221.81019,119.55269 225.203932,96.1917248 C225.797406,96.2175571 226.398633,96.1900027 227.003305,96.0883958 C232.302366,95.2040718 235.787412,89.6268888 234.785655,83.6329456" id="Fill-89" fill="#FFDCBB"></path>
                        <path d="M200.640434,94.6639081 C200.870519,95.9972647 196.639179,97.9604666 191.188986,99.0498043 C185.738794,100.138221 181.135382,99.9402434 180.905297,98.6078076 C180.675212,97.2735301 184.906553,95.3103282 190.356746,94.2219114 C195.806083,93.1316529 200.410349,93.3296306 200.640434,94.6639081" id="Fill-91" fill="#FFFFFF"></path>
                        <path d="M139.30202,105.054788 C139.532105,106.388144 135.300764,108.351346 129.850572,109.440684 C124.400379,110.529101 119.796968,110.331123 119.566883,108.998687 C119.336798,107.66441 123.568138,105.701208 129.018331,104.612791 C134.467668,103.522532 139.071935,103.72051 139.30202,105.054788" id="Fill-93" fill="#FFFFFF"></path>
                    </g>
                </g>
            </g>
        </g>
    </g>
</svg>