<?xml version="1.0" encoding="UTF-8"?>
<svg width="217px" height="58px" viewBox="0 0 217 58" version="1.1" xmlns="http://www.w3.org/2000/svg" xmlns:xlink="http://www.w3.org/1999/xlink">
    <!-- Generator: Sketch 46.2 (44496) - http://www.bohemiancoding.com/sketch -->
    <title>1logo_luxmedica</title>
    <desc>Created with Sketch.</desc>
    <defs></defs>
    <g id="Symbols" stroke="none" stroke-width="1" fill="none" fill-rule="evenodd">
        <g id="nav" transform="translate(-150.000000, -58.000000)">
            <g id="1logo_luxmedica">
                <g>
                    <g transform="translate(150.000000, 58.000000)">
                        <circle id="Oval" fill="#FA1756" fill-rule="nonzero" cx="13.9704348" cy="4.23652174" r="1.67695652"></circle>
                        <circle id="Oval" fill="#FA1756" fill-rule="nonzero" cx="4.21130435" cy="4.23652174" r="1"></circle>
                        <circle id="Oval" fill="#FA1756" fill-rule="nonzero" cx="4.21130435" cy="13.9956522" r="1.67695652"></circle>
                        <circle id="Oval" fill="#FA1756" fill-rule="nonzero" cx="13.9704348" cy="52.9691304" r="1.67695652"></circle>
                        <circle id="Oval" fill="#FA1756" fill-rule="nonzero" cx="4.21130435" cy="43.2352174" r="1.67695652"></circle>
                        <circle id="Oval" fill="#FA1756" fill-rule="nonzero" cx="4.21130435" cy="52.9943478" r="1"></circle>
                        <circle id="Oval" fill="#FA1756" fill-rule="nonzero" cx="52.9565217" cy="13.9704348" r="1.67695652"></circle>
                        <circle id="Oval" fill="#FA1756" fill-rule="nonzero" cx="52.9565217" cy="4.23652174" r="1"></circle>
                        <circle id="Oval" fill="#FA1756" fill-rule="nonzero" cx="43.1973913" cy="4.23652174" r="1.67695652"></circle>
                        <circle id="Oval" fill="#FA1756" fill-rule="nonzero" cx="52.9565217" cy="52.9691304" r="1"></circle>
                        <circle id="Oval" fill="#FA1756" fill-rule="nonzero" cx="52.9565217" cy="43.2352174" r="1.67695652"></circle>
                        <circle id="Oval" fill="#FA1756" fill-rule="nonzero" cx="43.1973913" cy="52.9943478" r="1.67695652"></circle>
                        <circle id="Oval" fill="#FA1756" fill-rule="nonzero" cx="33.4508696" cy="33.4886957" r="4.21130435"></circle>
                        <circle id="Oval" fill="#FA1756" fill-rule="nonzero" cx="23.7043478" cy="33.4886957" r="4.21130435"></circle>
                        <circle id="Oval" fill="#FA1756" fill-rule="nonzero" cx="33.4508696" cy="23.7043478" r="4.21130435"></circle>
                        <circle id="Oval" fill="#FA1756" fill-rule="nonzero" cx="23.7043478" cy="23.7043478" r="4.21130435"></circle>
                        <circle id="Oval" fill="#FA1756" fill-rule="nonzero" cx="33.4508696" cy="43.2352174" r="4.21130435"></circle>
                        <circle id="Oval" fill="#FA1756" fill-rule="nonzero" cx="23.7043478" cy="43.2352174" r="4.21130435"></circle>
                        <circle id="Oval" fill="#FA1756" fill-rule="nonzero" cx="33.4508696" cy="13.9956522" r="4.21130435"></circle>
                        <circle id="Oval" fill="#FA1756" fill-rule="nonzero" cx="23.7043478" cy="13.9956522" r="4.21130435"></circle>
                        <circle id="Oval" fill="#FA1756" fill-rule="nonzero" cx="43.1973913" cy="33.4886957" r="4.21130435"></circle>
                        <circle id="Oval" fill="#FA1756" fill-rule="nonzero" cx="43.1973913" cy="23.7043478" r="4.21130435"></circle>
                        <circle id="Oval" fill="#FA1756" fill-rule="nonzero" cx="13.9452174" cy="33.4886957" r="4.21130435"></circle>
                        <circle id="Oval" fill="#FA1756" fill-rule="nonzero" cx="13.9452174" cy="23.7043478" r="4.21130435"></circle>
                        <circle id="Oval" fill="#FA1756" fill-rule="nonzero" cx="33.4508696" cy="52.9691304" r="4.21130435"></circle>
                        <circle id="Oval" fill="#FA1756" fill-rule="nonzero" cx="23.7043478" cy="52.9691304" r="4.21130435"></circle>
                        <circle id="Oval" fill="#FA1756" fill-rule="nonzero" cx="13.9704348" cy="13.9704348" r="1.67695652"></circle>
                        <circle id="Oval" fill="#FA1756" fill-rule="nonzero" cx="13.9704348" cy="43.2352174" r="1.67695652"></circle>
                        <circle id="Oval" fill="#FA1756" fill-rule="nonzero" cx="43.1973913" cy="13.9956522" r="1.67695652"></circle>
                        <circle id="Oval" fill="#FA1756" fill-rule="nonzero" cx="43.1973913" cy="43.2352174" r="1.67695652"></circle>
                        <circle id="Oval" fill="#FA1756" fill-rule="nonzero" cx="33.4508696" cy="4.21130435" r="4.21130435"></circle>
                        <circle id="Oval" fill="#FA1756" fill-rule="nonzero" cx="23.7043478" cy="4.21130435" r="4.21130435"></circle>
                        <circle id="Oval" fill="#FA1756" fill-rule="nonzero" cx="52.943913" cy="33.4886957" r="4.21130435"></circle>
                        <circle id="Oval" fill="#FA1756" fill-rule="nonzero" cx="52.943913" cy="23.7043478" r="4.21130435"></circle>
                        <circle id="Oval" fill="#FA1756" fill-rule="nonzero" cx="4.21130435" cy="33.4886957" r="4.21130435"></circle>
                        <circle id="Oval" fill="#FA1756" fill-rule="nonzero" cx="4.21130435" cy="23.7043478" r="4.21130435"></circle>
                        <path d="M82.7004348,36.2247826 L82.7004348,32.7826087 L76.5095652,32.7826087 L76.5095652,20.8169565 L72.5252174,20.8169565 L72.5252174,36.2247826 L82.7004348,36.2247826 Z M92.9134783,36.5021739 L92.9134783,36.5021739 C97.8308696,36.5021739 100.163478,33.803913 100.163478,29.9582609 L100.163478,20.8169565 L96.153913,20.8169565 L96.153913,29.8447826 C96.0470067,31.559456 94.6251767,32.8953986 92.9071739,32.8953986 C91.1891711,32.8953986 89.7673411,31.559456 89.6604348,29.8447826 L89.6604348,20.8169565 L85.6130435,20.8169565 L85.6130435,29.9834783 C85.6130435,33.766087 87.9456522,36.5021739 92.9134783,36.5021739 L92.9134783,36.5021739 Z M118.773913,36.2247826 L118.773913,36.2247826 L113.415217,28.3065217 L118.458696,20.8169565 L113.717826,20.8169565 L110.742174,25.646087 L107.716087,20.8169565 L103.013043,20.8169565 L108.056522,28.3821739 L102.672609,36.2878261 L107.388261,36.2878261 L110.742174,31.1182609 L114.096087,36.2878261 L118.773913,36.2247826 Z M138.783913,36.2247826 L138.783913,36.2247826 L138.783913,20.8169565 L133.261304,20.8169565 L130.02087,29.1765217 L126.805652,20.8169565 L121.295652,20.8169565 L121.295652,36.2247826 L125.267391,36.2247826 L125.267391,26.1378261 L129.15087,36.2247826 L130.903478,36.2247826 L134.812174,26.1378261 L134.812174,36.2247826 L138.783913,36.2247826 Z M154.229565,36.2247826 L154.229565,36.2247826 L154.229565,32.7826087 L146.903913,32.7826087 L146.903913,30.1473913 L154.065652,30.1473913 L154.065652,26.68 L146.903913,26.68 L146.903913,24.2843478 L154.229565,24.2843478 L154.229565,20.8169565 L142.881739,20.8169565 L142.881739,36.2247826 L154.229565,36.2247826 Z M164.404783,36.2247826 L164.404783,36.2247826 C169.233913,36.2247826 172.726522,33.2869565 172.726522,28.5082609 C172.726522,23.7295652 169.233913,20.8169565 164.392174,20.8169565 L157.923913,20.8169565 L157.923913,36.2247826 L164.404783,36.2247826 Z M164.404783,32.7573913 L161.883043,32.7573913 L161.883043,24.2843478 L164.404783,24.2843478 C165.552841,24.1929289 166.683554,24.6075689 167.500344,25.4195114 C168.317134,26.2314539 168.738497,27.3596783 168.653913,28.5082609 C168.704546,29.6566633 168.270497,30.7735284 167.457665,31.5863604 C166.644833,32.3991924 165.527968,32.8332421 164.379565,32.7826087 L164.404783,32.7573913 Z M180.077391,36.2247826 L180.077391,36.2247826 L180.077391,20.8169565 L176.105652,20.8169565 L176.105652,36.2247826 L180.077391,36.2247826 Z M191.778261,36.5021739 L191.778261,36.5021739 C194.644343,36.5933562 197.288513,34.9661748 198.498696,32.3665217 L195.081739,30.7526087 C194.514687,32.0827487 193.22375,32.9597973 191.778261,32.9969565 C190.605588,33.0086828 189.479905,32.5366601 188.666312,31.6920502 C187.852718,30.8474402 187.423123,29.7048926 187.478696,28.5334783 C187.423123,27.3620639 187.852718,26.2195163 188.666312,25.3749063 C189.479905,24.5302964 190.605588,24.0582737 191.778261,24.07 C193.22375,24.1071593 194.514687,24.9842078 195.081739,26.3143478 L198.498696,24.7004348 C197.29902,22.0914491 194.647939,20.4600142 191.778261,20.5647826 C187.037391,20.5647826 183.443913,23.78 183.443913,28.5334783 C183.443913,33.2869565 187.012174,36.5652174 191.740435,36.5652174 L191.778261,36.5021739 Z M216.365217,36.2247826 L216.365217,36.2247826 L210.565217,20.8169565 L205.521739,20.8169565 L199.721739,36.2247826 L204.26087,36.2247826 L205.017391,34.0056522 L211.094783,34.0056522 L211.851304,36.2247826 L216.365217,36.2247826 Z M210.06087,30.5382609 L206.139565,30.5382609 L208.106522,24.7382609 L210.06087,30.5382609 Z" id="Shape" fill="#FFFFFF"></path>
                    </g>
                </g>
            </g>
        </g>
    </g>
</svg>