<?xml version="1.0" encoding="UTF-8"?>
<svg width="374px" height="79px" viewBox="0 0 374 79" version="1.1" xmlns="http://www.w3.org/2000/svg" xmlns:xlink="http://www.w3.org/1999/xlink">
    <!-- Generator: Sketch 46.2 (44496) - http://www.bohemiancoding.com/sketch -->
    <title>Luxmedica Kids</title>
    <desc>Created with Sketch.</desc>
    <defs></defs>
    <g id="Page-2" stroke="none" stroke-width="1" fill="none" fill-rule="evenodd">
        <g id="Главная" transform="translate(-735.000000, -2077.000000)">
            <g id="Group-5" transform="translate(0.000000, 1927.000000)">
                <g id="Luxmedica-Kids" transform="translate(735.000000, 150.000000)">
                    <g id="Group">
                        <g id="1logo_luxmedica">
                            <circle id="Oval" fill="#FA1756" fill-rule="nonzero" cx="19.2695652" cy="5.84347826" r="2.31304348"></circle>
                            <circle id="Oval" fill="#FA1756" fill-rule="nonzero" cx="5.80869565" cy="5.84347826" r="1.16521739"></circle>
                            <circle id="Oval" fill="#FA1756" fill-rule="nonzero" cx="5.80869565" cy="19.3043478" r="2.31304348"></circle>
                            <circle id="Oval" fill="#FA1756" fill-rule="nonzero" cx="19.2695652" cy="73.0608696" r="2.31304348"></circle>
                            <circle id="Oval" fill="#FA1756" fill-rule="nonzero" cx="5.80869565" cy="59.6347826" r="2.31304348"></circle>
                            <circle id="Oval" fill="#FA1756" fill-rule="nonzero" cx="5.80869565" cy="73.0956522" r="1.16521739"></circle>
                            <circle id="Oval" fill="#FA1756" fill-rule="nonzero" cx="73.0434783" cy="19.2695652" r="2.31304348"></circle>
                            <circle id="Oval" fill="#FA1756" fill-rule="nonzero" cx="73.0434783" cy="5.84347826" r="1.16521739"></circle>
                            <circle id="Oval" fill="#FA1756" fill-rule="nonzero" cx="59.5826087" cy="5.84347826" r="2.31304348"></circle>
                            <circle id="Oval" fill="#FA1756" fill-rule="nonzero" cx="73.0434783" cy="73.0608696" r="1.16521739"></circle>
                            <circle id="Oval" fill="#FA1756" fill-rule="nonzero" cx="73.0434783" cy="59.6347826" r="2.31304348"></circle>
                            <circle id="Oval" fill="#FA1756" fill-rule="nonzero" cx="59.5826087" cy="73.0956522" r="2.31304348"></circle>
                            <circle id="Oval" fill="#FA1756" fill-rule="nonzero" cx="46.1391304" cy="46.1913043" r="5.80869565"></circle>
                            <circle id="Oval" fill="#FA1756" fill-rule="nonzero" cx="32.6956522" cy="46.1913043" r="5.80869565"></circle>
                            <circle id="Oval" fill="#FA1756" fill-rule="nonzero" cx="46.1391304" cy="32.6956522" r="5.80869565"></circle>
                            <circle id="Oval" fill="#FA1756" fill-rule="nonzero" cx="32.6956522" cy="32.6956522" r="5.80869565"></circle>
                            <circle id="Oval" fill="#FA1756" fill-rule="nonzero" cx="46.1391304" cy="59.6347826" r="5.80869565"></circle>
                            <circle id="Oval" fill="#FA1756" fill-rule="nonzero" cx="32.6956522" cy="59.6347826" r="5.80869565"></circle>
                            <circle id="Oval" fill="#FA1756" fill-rule="nonzero" cx="46.1391304" cy="19.3043478" r="5.80869565"></circle>
                            <circle id="Oval" fill="#FA1756" fill-rule="nonzero" cx="32.6956522" cy="19.3043478" r="5.80869565"></circle>
                            <circle id="Oval" fill="#FA1756" fill-rule="nonzero" cx="59.5826087" cy="46.1913043" r="5.80869565"></circle>
                            <circle id="Oval" fill="#FA1756" fill-rule="nonzero" cx="59.5826087" cy="32.6956522" r="5.80869565"></circle>
                            <circle id="Oval" fill="#FA1756" fill-rule="nonzero" cx="19.2347826" cy="46.1913043" r="5.80869565"></circle>
                            <circle id="Oval" fill="#FA1756" fill-rule="nonzero" cx="19.2347826" cy="32.6956522" r="5.80869565"></circle>
                            <circle id="Oval" fill="#FA1756" fill-rule="nonzero" cx="46.1391304" cy="73.0608696" r="5.80869565"></circle>
                            <circle id="Oval" fill="#FA1756" fill-rule="nonzero" cx="32.6956522" cy="73.0608696" r="5.80869565"></circle>
                            <circle id="Oval" fill="#FA1756" fill-rule="nonzero" cx="19.2695652" cy="19.2695652" r="2.31304348"></circle>
                            <circle id="Oval" fill="#FA1756" fill-rule="nonzero" cx="19.2695652" cy="59.6347826" r="2.31304348"></circle>
                            <circle id="Oval" fill="#FA1756" fill-rule="nonzero" cx="59.5826087" cy="19.3043478" r="2.31304348"></circle>
                            <circle id="Oval" fill="#FA1756" fill-rule="nonzero" cx="59.5826087" cy="59.6347826" r="2.31304348"></circle>
                            <circle id="Oval" fill="#FA1756" fill-rule="nonzero" cx="46.1391304" cy="5.80869565" r="5.80869565"></circle>
                            <circle id="Oval" fill="#FA1756" fill-rule="nonzero" cx="32.6956522" cy="5.80869565" r="5.80869565"></circle>
                            <circle id="Oval" fill="#FA1756" fill-rule="nonzero" cx="73.026087" cy="46.1913043" r="5.80869565"></circle>
                            <circle id="Oval" fill="#FA1756" fill-rule="nonzero" cx="73.026087" cy="32.6956522" r="5.80869565"></circle>
                            <circle id="Oval" fill="#FA1756" fill-rule="nonzero" cx="5.80869565" cy="46.1913043" r="5.80869565"></circle>
                            <circle id="Oval" fill="#FA1756" fill-rule="nonzero" cx="5.80869565" cy="32.6956522" r="5.80869565"></circle>
                            <path d="M114.069565,49.9652174 L114.069565,45.2173913 L105.530435,45.2173913 L105.530435,28.7130435 L100.034783,28.7130435 L100.034783,49.9652174 L114.069565,49.9652174 Z M128.156522,50.3478261 L128.156522,50.3478261 C134.93913,50.3478261 138.156522,46.626087 138.156522,41.3217391 L138.156522,28.7130435 L132.626087,28.7130435 L132.626087,41.1652174 C132.47863,43.5302841 130.517485,45.3729636 128.147826,45.3729636 C125.778167,45.3729636 123.817022,43.5302841 123.669565,41.1652174 L123.669565,28.7130435 L118.086957,28.7130435 L118.086957,41.3565217 C118.086957,46.573913 121.304348,50.3478261 128.156522,50.3478261 L128.156522,50.3478261 Z M163.826087,49.9652174 L163.826087,49.9652174 L156.434783,39.0434783 L163.391304,28.7130435 L156.852174,28.7130435 L152.747826,35.373913 L148.573913,28.7130435 L142.086957,28.7130435 L149.043478,39.1478261 L141.617391,50.0521739 L148.121739,50.0521739 L152.747826,42.9217391 L157.373913,50.0521739 L163.826087,49.9652174 Z M191.426087,49.9652174 L191.426087,49.9652174 L191.426087,28.7130435 L183.808696,28.7130435 L179.33913,40.2434783 L174.904348,28.7130435 L167.304348,28.7130435 L167.304348,49.9652174 L172.782609,49.9652174 L172.782609,36.0521739 L178.13913,49.9652174 L180.556522,49.9652174 L185.947826,36.0521739 L185.947826,49.9652174 L191.426087,49.9652174 Z M212.730435,49.9652174 L212.730435,49.9652174 L212.730435,45.2173913 L202.626087,45.2173913 L202.626087,41.5826087 L212.504348,41.5826087 L212.504348,36.8 L202.626087,36.8 L202.626087,33.4956522 L212.730435,33.4956522 L212.730435,28.7130435 L197.078261,28.7130435 L197.078261,49.9652174 L212.730435,49.9652174 Z M226.765217,49.9652174 L226.765217,49.9652174 C233.426087,49.9652174 238.243478,45.9130435 238.243478,39.3217391 C238.243478,32.7304348 233.426087,28.7130435 226.747826,28.7130435 L217.826087,28.7130435 L217.826087,49.9652174 L226.765217,49.9652174 Z M226.765217,45.1826087 L223.286957,45.1826087 L223.286957,33.4956522 L226.765217,33.4956522 C228.348747,33.3695571 229.90835,33.9414744 231.034957,35.0613951 C232.161564,36.1813158 232.742754,37.7374873 232.626087,39.3217391 C232.695926,40.9057425 232.097237,42.446246 230.976089,43.5673937 C229.854942,44.6885413 228.314438,45.2872304 226.730435,45.2173913 L226.765217,45.1826087 Z M248.382609,49.9652174 L248.382609,49.9652174 L248.382609,28.7130435 L242.904348,28.7130435 L242.904348,49.9652174 L248.382609,49.9652174 Z M264.521739,50.3478261 L264.521739,50.3478261 C268.474955,50.4735948 272.122086,48.2292066 273.791304,44.6434783 L269.078261,42.4173913 C268.29612,44.2520672 266.515518,45.4617893 264.521739,45.5130435 C262.904259,45.5292177 261.351593,44.8781519 260.229395,43.7131727 C259.107198,42.5481934 258.514653,40.9722656 258.591304,39.3565217 C258.514653,37.7407778 259.107198,36.16485 260.229395,34.9998708 C261.351593,33.8348916 262.904259,33.1838258 264.521739,33.2 C266.515518,33.2512542 268.29612,34.4609763 269.078261,36.2956522 L273.791304,34.0695652 C272.13658,30.4709642 268.479915,28.2207093 264.521739,28.3652174 C257.982609,28.3652174 253.026087,32.8 253.026087,39.3565217 C253.026087,45.9130435 257.947826,50.4347826 264.469565,50.4347826 L264.521739,50.3478261 Z M298.434783,49.9652174 L298.434783,49.9652174 L290.434783,28.7130435 L283.478261,28.7130435 L275.478261,49.9652174 L281.73913,49.9652174 L282.782609,46.9043478 L291.165217,46.9043478 L292.208696,49.9652174 L298.434783,49.9652174 Z M289.73913,42.1217391 L284.330435,42.1217391 L287.043478,34.1217391 L289.73913,42.1217391 Z" id="Shape" fill="#FFFFFF"></path>
                        </g>
                    </g>
                    <g id="Group-2" transform="translate(316.000000, 25.000000)">
                        <path d="M17.8,1.556 C17.7039995,1.82000132 17.4280023,2.26399688 16.972,2.888 C16.5159977,3.51200312 15.9820031,4.21999604 15.37,5.012 C14.7579969,5.80400396 14.1100034,6.63199568 13.426,7.496 C12.7419966,8.36000432 12.1120029,9.15799634 11.536,9.89 C10.9599971,10.6220037 10.4920018,11.2459974 10.132,11.762 C9.7719982,12.2780026 9.60399988,12.5719996 9.628,12.644 L9.7,12.824 C9.79600048,13.0400011 10.0119983,13.3759977 10.348,13.832 C10.6840017,14.2880023 11.049998,14.7559976 11.446,15.236 C11.842002,15.7160024 12.2319981,16.1719978 12.616,16.604 L13.48,17.576 C13.9360023,18.0800025 14.4339973,18.6019973 14.974,19.142 C15.5140027,19.6820027 16.0419974,20.2339972 16.558,20.798 C17.0740026,21.3620028 17.5539978,21.9379971 17.998,22.526 C18.4420022,23.1140029 18.7959987,23.707997 19.06,24.308 C19.0119998,24.4520007 18.892001,24.6079992 18.7,24.776 C18.507999,24.9440008 18.2860013,25.1059992 18.034,25.262 C17.7819987,25.4180008 17.5360012,25.5619993 17.296,25.694 C17.0559988,25.8260007 16.8640007,25.9159998 16.72,25.964 C16.5999994,25.964 16.444001,25.9580001 16.252,25.946 C16.059999,25.9339999 15.9400002,25.8800005 15.892,25.784 C15.7959995,25.6399993 15.7120004,25.4960007 15.64,25.352 C15.5679996,25.2079993 15.4720006,25.0760006 15.352,24.956 C15.2079993,24.763999 14.9260021,24.4220025 14.506,23.93 C14.0859979,23.4379975 13.5940028,22.8740032 13.03,22.238 C12.4659972,21.6019968 11.8600032,20.9360035 11.212,20.24 C10.5639968,19.5439965 9.95800282,18.9140028 9.394,18.35 C8.82999718,17.7859972 8.32600222,17.3120019 7.882,16.928 C7.43799778,16.5439981 7.13200084,16.352 6.964,16.352 C6.57999808,16.6160013 6.19600192,17.0119974 5.812,17.54 C5.42799808,18.0680026 5.06800168,18.535998 4.732,18.944 L4.732,20.672 L4.48,25.172 C4.33599928,25.2680005 4.19200072,25.3519996 4.048,25.424 C3.90399928,25.4720002 3.7420009,25.5139998 3.562,25.55 C3.3819991,25.5860002 3.16000132,25.5800002 2.896,25.532 C2.82399964,25.5560001 2.68000108,25.5440002 2.464,25.496 C2.24799892,25.4479998 2.0200012,25.3940003 1.78,25.334 C1.5399988,25.2739997 1.31200108,25.2140003 1.096,25.154 C0.87999892,25.0939997 0.73600036,25.064 0.664,25.064 C0.5439994,24.5119972 0.48999994,23.8040043 0.502,22.94 C0.51400006,22.0759957 0.54399976,21.1760047 0.592,20.24 C0.64000024,19.3039953 0.6939997,18.4040043 0.754,17.54 C0.8140003,16.6759957 0.844,15.9560029 0.844,15.38 L0.88,15.344 C1.02400072,13.2559896 1.096,11.1560106 1.096,9.044 C1.096,8.27599616 1.13199964,7.50800384 1.204,6.74 C1.27600036,5.97199616 1.312,5.20400384 1.312,4.436 L1.312,2.384 C1.312,1.68799652 1.38399928,1.01600324 1.528,0.368 C1.8880018,0.1279988 2.19399874,0.01399994 2.446,0.026 C2.69800126,0.03800006 3.05199772,0.07999964 3.508,0.152 C3.53200012,0.20000024 3.61599928,0.23599988 3.76,0.26 C3.90400072,0.28400012 4.0659991,0.30199994 4.246,0.314 C4.4260009,0.32600006 4.59399922,0.332 4.75,0.332 C4.90600078,0.332 5.00799976,0.34399988 5.056,0.368 C4.98399964,2.50401068 4.92400024,4.62798944 4.876,6.74 C4.82799976,8.85201056 4.79200012,10.9759893 4.768,13.112 C5.10400168,12.6079975 5.46999802,12.1280023 5.866,11.672 C6.26200198,11.2159977 6.62799832,10.7480024 6.964,10.268 C7.18000108,9.95599844 7.48599802,9.51800282 7.882,8.954 C8.27800198,8.38999718 8.7159976,7.7780033 9.196,7.118 C9.6760024,6.4579967 10.1859973,5.78000348 10.726,5.084 C11.2660027,4.38799652 11.7939974,3.740003 12.31,3.14 C12.8260026,2.539997 13.3119977,2.01200228 13.768,1.556 C14.2240023,1.09999772 14.6079984,0.78800084 14.92,0.62 C15.1600012,0.52399952 15.4599982,0.48799988 15.82,0.512 C16.1800018,0.53600012 16.5159984,0.60199946 16.828,0.71 C17.1400016,0.81800054 17.391999,0.94999922 17.584,1.106 C17.776001,1.26200078 17.8480002,1.41199928 17.8,1.556 Z" id="Kids" fill="#FBED30"></path>
                        <path d="M23.74,5.624 C24.1960023,5.8640012 24.5019992,6.18799796 24.658,6.596 C24.8140008,7.00400204 24.8440005,7.4179979 24.748,7.838 C24.6519995,8.2580021 24.4540015,8.62999838 24.154,8.954 C23.8539985,9.27800162 23.4760023,9.47599964 23.02,9.548 C22.3719968,9.64400048 21.850002,9.53000162 21.454,9.206 C21.057998,8.88199838 20.8180004,8.48600234 20.734,8.018 C20.6499996,7.54999766 20.7219989,7.07000246 20.95,6.578 C21.1780011,6.08599754 21.6039969,5.70800132 22.228,5.444 C22.5640017,5.29999928 22.8519988,5.26999958 23.092,5.354 C23.3320012,5.43800042 23.547999,5.52799952 23.74,5.624 Z" id="Path" fill="#50CEF7"></path>
                        <path d="M21.292,14.084 C21.292,13.8679989 21.3039999,13.5740019 21.328,13.202 C21.3520001,12.8299981 21.3759999,12.5720007 21.4,12.428 C21.5440007,12.428 21.8019981,12.4040002 22.174,12.356 C22.5460019,12.3079998 22.8039993,12.3079998 22.948,12.356 C23.1880012,12.3800001 23.4279988,12.4279996 23.668,12.5 C23.9080012,12.5720004 24.123999,12.6199999 24.316,12.644 C24.3640002,12.8600011 24.3999999,13.2859968 24.424,13.922 C24.4480001,14.5580032 24.46,15.2959958 24.46,16.136 C24.46,16.9760042 24.4540001,17.8699953 24.442,18.818 C24.4299999,19.7660047 24.4120001,20.6659957 24.388,21.518 C24.3639999,22.3700043 24.3400001,23.1139968 24.316,23.75 C24.2919999,24.3860032 24.2680001,24.8119989 24.244,25.028 C24.2199999,25.2440011 24.0580015,25.3939996 23.758,25.478 C23.4579985,25.5620004 23.1280018,25.6099999 22.768,25.622 C22.4079982,25.6340001 22.0600017,25.6220002 21.724,25.586 C21.3879983,25.5499998 21.1720005,25.532 21.076,25.532 C21.076,25.3159989 21.0819999,24.9140029 21.094,24.326 C21.1060001,23.7379971 21.1239999,23.048004 21.148,22.256 C21.1720001,21.463996 21.1899999,20.6300044 21.202,19.754 C21.2140001,18.8779956 21.2319999,18.0500039 21.256,17.27 C21.2800001,16.4899961 21.292,15.8120029 21.292,15.236 L21.292,14.084 Z" id="Path" fill="#50CEF7"></path>
                        <path d="M56.212,18.8 C56.620002,19.0880014 56.8659996,19.3699986 56.95,19.646 C57.0340004,19.9220014 57.1239995,20.2879977 57.22,20.744 C57.3640007,21.4640036 57.334001,22.1059972 57.13,22.67 C56.925999,23.2340028 56.5960023,23.719998 56.14,24.128 C55.6839977,24.536002 55.1440031,24.8839986 54.52,25.172 C53.8959969,25.4600014 53.2480034,25.6819992 52.576,25.838 C51.9039966,25.9940008 51.2320034,26.1079996 50.56,26.18 C49.8879966,26.2520004 49.2880026,26.2760001 48.76,26.252 C47.9199958,26.2039998 47.1280037,26.0420014 46.384,25.766 C45.6399963,25.4899986 44.9080036,25.148002 44.188,24.74 C44.2600004,24.5239989 44.3199998,24.2720014 44.368,23.984 C44.4160002,23.6959986 44.4759996,23.4020015 44.548,23.102 C44.6200004,22.8019985 44.7159994,22.5200013 44.836,22.256 C44.9560006,21.9919987 45.111999,21.764001 45.304,21.572 L45.844,22.004 C46.0120008,22.1720008 46.2279987,22.351999 46.492,22.544 C46.7560013,22.736001 47.0379985,22.9099992 47.338,23.066 C47.6380015,23.2220008 47.9379985,23.3479995 48.238,23.444 C48.5380015,23.5400005 48.8079988,23.588 49.048,23.588 C50.5600076,23.6360002 51.7539956,23.462002 52.63,23.066 C53.5060044,22.669998 53.9320001,22.1480032 53.908,21.5 C53.908,21.2119986 53.7640014,20.972001 53.476,20.78 C53.1879986,20.587999 52.948001,20.4440005 52.756,20.348 C52.1079968,20.0599986 51.3580043,19.8440007 50.506,19.7 C49.6539957,19.5559993 48.8560037,19.3520013 48.112,19.088 C47.3679963,18.8239987 46.7380026,18.4280026 46.222,17.9 C45.7059974,17.3719974 45.448,16.5680054 45.448,15.488 C45.448,14.7919965 45.6279982,14.1620028 45.988,13.598 C46.3480018,13.0339972 46.8219971,12.5360022 47.41,12.104 C47.9980029,11.6719978 48.6639963,11.3120014 49.408,11.024 C50.1520037,10.7359986 50.9079962,10.5140008 51.676,10.358 C52.4440038,10.2019992 53.1879964,10.1299999 53.908,10.142 C54.6280036,10.1540001 55.2639972,10.2439992 55.816,10.412 C55.9360006,10.4600002 56.1039989,10.5199996 56.32,10.592 C56.5360011,10.6640004 56.7039994,10.7359996 56.824,10.808 C56.9200005,11.0720013 56.9080006,11.2939991 56.788,11.474 C56.6679994,11.6540009 56.5840002,11.8759987 56.536,12.14 C56.4879998,12.1880002 56.4520001,12.2719994 56.428,12.392 C56.4039999,12.5120006 56.3800001,12.6379993 56.356,12.77 C56.3319999,12.9020007 56.3140001,13.0279994 56.302,13.148 C56.2899999,13.2680006 56.2600002,13.328 56.212,13.328 C55.9719988,13.3520001 55.7260013,13.3400002 55.474,13.292 C55.2219987,13.2439998 54.9640013,13.2080001 54.7,13.184 C54.1719974,13.1359998 53.608003,13.1179999 53.008,13.13 C52.407997,13.1420001 51.8260028,13.2199993 51.262,13.364 C50.6979972,13.5080007 50.1760024,13.7359984 49.696,14.048 C49.2159976,14.3600016 48.8440013,14.7919972 48.58,15.344 L48.544,15.416 C48.5680001,15.6560012 48.6579992,15.877999 48.814,16.082 C48.9700008,16.286001 49.1619989,16.4599993 49.39,16.604 C49.6180011,16.7480007 49.8519988,16.8679995 50.092,16.964 C50.3320012,17.0600005 50.5599989,17.1199999 50.776,17.144 C51.3280028,17.2160004 51.8799972,17.3059995 52.432,17.414 C52.9840028,17.5220005 53.5059975,17.6539992 53.998,17.81 C54.4900025,17.9660008 54.9279981,18.1279992 55.312,18.296 C55.6960019,18.4640008 55.9959989,18.6319992 56.212,18.8 Z" id="Path" fill="#76FB56"></path>
                        <path d="M40.984,24.956 C40.8639994,25.0280004 40.7200008,25.0819998 40.552,25.118 C40.3839992,25.1540002 40.2400006,25.1959998 40.12,25.244 C39.5439971,25.3880007 39.1240013,25.4719999 38.86,25.496 C38.5959987,25.5200001 38.4160005,25.4660007 38.32,25.334 C38.2239995,25.2019993 38.176,24.9860015 38.176,24.686 C38.176,24.3859985 38.1520002,23.9960024 38.104,23.516 C37.8879989,23.6840008 37.6960008,23.8279994 37.528,23.948 C37.3599992,24.0680006 37.1980008,24.1759995 37.042,24.272 C36.8859992,24.3680005 36.7180009,24.4579996 36.538,24.542 C36.3579991,24.6260004 36.1480012,24.7159995 35.908,24.812 C35.8119995,24.8600002 35.6800008,24.9019998 35.512,24.938 C35.3439992,24.9740002 35.1700009,25.0159998 34.99,25.064 C34.8099991,25.1120002 34.6300009,25.1539998 34.45,25.19 C34.2699991,25.2260002 34.1320005,25.2559999 34.036,25.28 C33.627998,25.4000006 33.226002,25.4360002 32.83,25.388 C32.433998,25.3399998 32.032002,25.2680005 31.624,25.172 C30.2559932,24.8359983 29.2300034,24.2000047 28.546,23.264 C27.8619966,22.3279953 27.4660005,21.2720059 27.358,20.096 C27.2499995,18.9199941 27.4179978,17.732006 27.862,16.532 C28.3060022,15.331994 28.9839954,14.2880044 29.896,13.4 C30.6640038,12.6799964 31.5099954,12.0980022 32.434,11.654 C33.3580046,11.2099978 34.3599946,10.988 35.44,10.988 L36.034,10.988 C36.2620011,10.988 36.4479993,11.0119998 36.592,11.06 C36.9280017,11.1320004 37.1859991,11.1979997 37.366,11.258 C37.5460009,11.3180003 37.8039983,11.4079994 38.14,11.528 C38.2600006,10.9759972 38.2960002,10.4180028 38.248,9.854 C38.1999998,9.28999718 38.1879999,8.73200276 38.212,8.18 C38.2360001,7.38799604 38.248,6.57800414 38.248,5.75 C38.248,4.92199586 38.3079994,4.12400384 38.428,3.356 C38.4760002,3.09199868 38.5059999,2.84600114 38.518,2.618 C38.5300001,2.38999886 38.5120002,2.14400132 38.464,1.88 L39.904,1.844 L40.768,1.844 C40.8640005,1.844 40.9599995,1.85599988 41.056,1.88 C41.1520005,2.31200216 41.2119999,3.06199466 41.236,4.13 C41.2600001,5.19800534 41.2600001,6.34999382 41.236,7.586 C41.2119999,8.82200618 41.1880001,10.0099943 41.164,11.15 C41.1399999,12.2900057 41.128,13.1479971 41.128,13.724 C41.128,14.6360046 41.1459998,15.5659953 41.182,16.514 C41.2180002,17.4620047 41.2479999,18.4219951 41.272,19.394 C41.2960001,20.3660049 41.2900002,21.3199953 41.254,22.256 C41.2179998,23.1920047 41.1280007,24.0919957 40.984,24.956 Z M37.924,14.336 C37.6119984,14.1199989 37.2940016,13.9880002 36.97,13.94 C36.6459984,13.8919998 36.3040018,13.8799999 35.944,13.904 C35.2719966,13.9520002 34.6180032,14.0959988 33.982,14.336 C33.3459968,14.5760012 32.7700026,14.9119978 32.254,15.344 C31.7379974,15.7760022 31.3180016,16.2859971 30.994,16.874 C30.6699984,17.4620029 30.4840002,18.1039965 30.436,18.8 C30.3879998,19.208002 30.3999996,19.5859983 30.472,19.934 C30.5440004,20.2820017 30.6999988,20.6239983 30.94,20.96 C31.348002,21.5360029 31.8879966,21.8839994 32.56,22.004 C32.8000012,22.0520002 33.1899973,22.0640001 33.73,22.04 C34.2700027,22.0159999 34.8339971,21.9440006 35.422,21.824 C36.0100029,21.7039994 36.5379977,21.5240012 37.006,21.284 C37.4740023,21.0439988 37.7559995,20.7440018 37.852,20.384 C37.9240004,20.0719984 37.9899997,19.6520026 38.05,19.124 C38.1100003,18.5959974 38.1459999,18.0380029 38.158,17.45 C38.1700001,16.8619971 38.1580002,16.2920028 38.122,15.74 C38.0859998,15.1879972 38.0200005,14.7200019 37.924,14.336 Z" id="Combined-Shape" fill="#FA1756"></path>
                    </g>
                </g>
            </g>
        </g>
    </g>
</svg>