<?xml version="1.0" encoding="UTF-8"?>
<svg width="13px" height="10px" viewBox="0 0 13 10" version="1.1" xmlns="http://www.w3.org/2000/svg" xmlns:xlink="http://www.w3.org/1999/xlink">
    <!-- Generator: Sketch 46.2 (44496) - http://www.bohemiancoding.com/sketch -->
    <title>mail</title>
    <desc>Created with Sketch.</desc>
    <defs></defs>
    <g id="Symbols" stroke="none" stroke-width="1" fill="none" fill-rule="evenodd">
        <g id="footer" transform="translate(-945.000000, -81.000000)" stroke="#FFFFFF">
            <g id="Group-2">
                <g transform="translate(945.000000, 18.000000)">
                    <g id="mail" transform="translate(0.000000, 63.000000)">
                        <rect id="Rectangle-12" x="0.5" y="0.5" width="12" height="9" rx="2"></rect>
                        <path d="M7.04410661,0.821761368 L11.9735669,3.96678929 L11.9735669,3.96678929 C12.4391615,4.26384168 12.575792,4.88208922 12.2787396,5.3476838 C12.095068,5.63556737 11.7771913,5.80982287 11.435706,5.80982287 L1.68904096,5.80982287 L1.68904096,5.80982287 C1.13675621,5.80982287 0.689040962,5.36210762 0.689040962,4.80982287 C0.689040962,4.47206299 0.859541322,4.15712686 1.14236194,3.97248062 L5.95956665,0.827452694 L5.95956665,0.827452694 C6.28856854,0.612655906 6.71286854,0.610429312 7.04410661,0.821761368 Z" id="Triangle" transform="translate(6.562436, 3.237309) scale(1, -1) translate(-6.562436, -3.237309) "></path>
                    </g>
                </g>
            </g>
        </g>
    </g>
</svg>