<?xml version="1.0" encoding="UTF-8"?>
<svg width="19px" height="19px" viewBox="0 0 19 19" version="1.1" xmlns="http://www.w3.org/2000/svg" xmlns:xlink="http://www.w3.org/1999/xlink">
    <!-- Generator: Sketch 46.2 (44496) - http://www.bohemiancoding.com/sketch -->
    <title>Group 6</title>
    <desc>Created with Sketch.</desc>
    <defs></defs>
    <g id="Page-2" stroke="none" stroke-width="1" fill="none" fill-rule="evenodd">
        <g id="Контакты" transform="translate(-742.000000, -412.000000)">
            <g id="Group-6" transform="translate(743.000000, 413.000000)">
                <circle id="Oval-2" stroke="#2F223A" stroke-width="1.5" fill="#FFFFFF" cx="8.5" cy="8.5" r="8.5"></circle>
                <path d="M8.53438908,12.3205267 C8.46052852,12.3205267 8.39550009,12.2972449 8.33930184,12.2506807 C8.28310359,12.2041164 8.23734284,12.1551444 8.20201822,12.1037631 L6.55461482,9.09315749 L6.26559668,11.6268832 C6.25917402,11.7039551 6.23749788,11.7617581 6.2005676,11.8002941 C6.16363732,11.83883 6.10663709,11.8580977 6.0295652,11.8580977 L4.71453266,11.8580977 C4.63103811,11.8580977 4.57002378,11.8396328 4.53148784,11.8027026 C4.49295189,11.7657723 4.47368421,11.7055608 4.47368421,11.6220662 L5.16251078,4.67599691 C5.16251078,4.65994027 5.16491924,4.64067258 5.16973623,4.61819328 C5.17455323,4.59571398 5.18258143,4.57323502 5.19382108,4.55075571 C5.20506073,4.52827641 5.22191995,4.50981155 5.24439925,4.49536057 C5.26687855,4.48090959 5.29578008,4.47368421 5.33110469,4.47368421 C5.39211994,4.47368421 5.44831735,4.51382522 5.49969861,4.59410844 L8.48621939,9.10279143 L8.49103636,9.12687627 L8.49585333,9.10279143 L11.4823741,4.59410844 C11.5337554,4.51382522 11.5899528,4.47368421 11.650968,4.47368421 C11.6862926,4.47368421 11.7151942,4.48090959 11.7376735,4.49536057 C11.7601528,4.50981155 11.777012,4.52827641 11.7882516,4.55075571 C11.7994913,4.57323502 11.8075195,4.59571398 11.8123365,4.61819328 C11.8171535,4.64067258 11.8195619,4.65994027 11.8195619,4.67599691 L12.5083885,11.6220662 C12.5083885,11.6284889 12.5091913,11.6349114 12.510797,11.6413341 C12.5124027,11.6477568 12.5132055,11.6541793 12.5132055,11.660602 C12.5132055,11.7312512 12.4899237,11.7818289 12.4433594,11.8123365 C12.3967952,11.8428441 12.3381893,11.8580977 12.2675401,11.8580977 L10.9525075,11.8580977 C10.8754356,11.8580977 10.8192382,11.83883 10.7839136,11.8002941 C10.748589,11.7617581 10.72611,11.7039551 10.716476,11.6268832 L10.4274579,9.09315749 L8.74633572,12.1856516 C8.72706775,12.2177649 8.69816622,12.2466664 8.65963028,12.272357 C8.62109433,12.2980477 8.58255897,12.3141041 8.54402302,12.3205267 L8.53438908,12.3205267 Z" id="M" fill="#2F223A"></path>
            </g>
        </g>
    </g>
</svg>