<?xml version="1.0" encoding="UTF-8"?>
<svg width="41px" height="57px" viewBox="0 0 41 57" version="1.1" xmlns="http://www.w3.org/2000/svg" xmlns:xlink="http://www.w3.org/1999/xlink">
    <!-- Generator: Sketch 46.2 (44496) - http://www.bohemiancoding.com/sketch -->
    <title>park</title>
    <desc>Created with Sketch.</desc>
    <defs>
        <rect id="path-1" x="0" y="0" width="39.8787879" height="56" rx="6"></rect>
    </defs>
    <g id="Page-2" stroke="none" stroke-width="1" fill="none" fill-rule="evenodd">
        <g id="Контакты.-правила-парковки" transform="translate(-471.000000, -231.000000)">
            <g id="info" transform="translate(443.000000, 171.000000)">
                <g id="park" transform="translate(28.567515, 60.206618)">
                    <g id="Rectangle-3">
                        <use fill="#FFFFFF" fill-rule="evenodd" xlink:href="#path-1"></use>
                        <rect stroke="#2F223A" stroke-width="2" x="1" y="1" width="37.8787879" height="54" rx="6"></rect>
                    </g>
                    <path d="M17.0647273,38.192 L12.7272727,38.192 L12.7272727,17.8181818 L22.2574545,17.8181818 C26.6865455,17.8181818 29.0996364,20.8116364 29.0996364,24.3854545 C29.0996364,27.9287273 26.656,30.9527273 22.2574545,30.9527273 L17.0647273,30.9527273 L17.0647273,38.192 Z M21.6770909,27.1345455 C23.3876364,27.1345455 24.6705455,26.0654545 24.6705455,24.3854545 C24.6705455,22.6749091 23.3876364,21.6363636 21.6770909,21.6363636 L17.0647273,21.6363636 L17.0647273,27.1345455 L21.6770909,27.1345455 Z" id="P" fill="#2F223A"></path>
                </g>
            </g>
        </g>
    </g>
</svg>