<?xml version="1.0" encoding="UTF-8"?>
<svg width="18px" height="18px" viewBox="0 0 18 18" version="1.1" xmlns="http://www.w3.org/2000/svg" xmlns:xlink="http://www.w3.org/1999/xlink">
    <!-- Generator: Sketch 46.2 (44496) - http://www.bohemiancoding.com/sketch -->
    <title>search</title>
    <desc>Created with Sketch.</desc>
    <defs></defs>
    <g id="Symbols" stroke="none" stroke-width="1" fill="none" fill-rule="evenodd" fill-opacity="0.7">
        <g id="nav" transform="translate(-1040.000000, -14.000000)" fill-rule="nonzero" fill="#FFFFFF">
            <g id="noun_894546_cc">
                <g>
                    <g transform="translate(1040.000000, 14.000000)">
                        <g id="search">
                            <path d="M6.86931669,0.0856145455 C3.08142827,0.0856145455 0.000895642105,3.23096727 0.000895642105,7.09860156 C0.000895642105,10.9661844 3.08142827,14.1115792 6.86931669,14.1115792 C8.59821275,14.1115792 10.1753396,13.4530597 11.3838841,12.3729429 L16.6210551,17.7130286 C16.7998859,17.8955532 17.0861388,17.8956 17.2649467,17.7130286 C17.4438004,17.5304338 17.4438462,17.2380857 17.2649467,17.055561 L12.0349417,11.7154753 C13.0948764,10.4810026 13.7377377,8.86581818 13.7377377,7.09860156 C13.7377377,3.23096494 10.6571822,0.0856145455 6.86931669,0.0856145455 L6.86931669,0.0856145455 Z M6.86931669,1.02067948 C10.1622438,1.02067948 12.8219483,3.7363161 12.8219483,7.09860156 C12.8219483,10.4608286 10.1622438,13.1765143 6.86931669,13.1765143 C3.57636669,13.1765143 0.916685116,10.4608286 0.916685116,7.09860156 C0.916685116,3.73631377 3.57636669,1.02067948 6.86931669,1.02067948 Z" id="Shape"></path>
                        </g>
                    </g>
                </g>
            </g>
        </g>
    </g>
</svg>