<?xml version="1.0" encoding="UTF-8"?>
<svg width="20px" height="20px" viewBox="0 0 20 20" version="1.1" xmlns="http://www.w3.org/2000/svg" xmlns:xlink="http://www.w3.org/1999/xlink">
    <!-- Generator: Sketch 46.2 (44496) - http://www.bohemiancoding.com/sketch -->
    <title>time</title>
    <desc>Created with Sketch.</desc>
    <defs></defs>
    <g id="Symbols" stroke="none" stroke-width="1" fill="none" fill-rule="evenodd">
        <g id="nav" transform="translate(-593.000000, -13.000000)" fill-rule="nonzero" fill="#FFFFFF">
            <g id="time">
                <g>
                    <g transform="translate(593.000000, 13.000000)">
                        <g id="Shape">
                            <path d="M10,0.212121212 C4.59430381,0.212121212 0.212121212,4.59430381 0.212121212,10 C0.212121212,15.4056962 4.59430381,19.7878788 10,19.7878788 C15.4056962,19.7878788 19.7878788,15.4056962 19.7878788,10 C19.7828669,4.59638115 15.4036188,0.217133074 10,0.212121212 Z M10,18.5757576 C5.26373987,18.5757576 1.42424242,14.7362601 1.42424242,10 C1.42424242,5.26373987 5.26373987,1.42424242 10,1.42424242 C14.7362601,1.42424242 18.5757576,5.26373987 18.5757576,10 C18.570747,14.7341831 14.7341831,18.570747 10,18.5757576 L10,18.5757576 Z"></path>
                            <path d="M14.1424242,9.6969697 L10.5060606,9.6969697 L10.5060606,5.45454545 C10.5060606,5.11982742 10.234718,4.84848485 9.9,4.84848485 C9.56528197,4.84848485 9.29393939,5.11982742 9.29393939,5.45454545 L9.29393939,10.3030303 C9.29393939,10.6377483 9.56528197,10.9090909 9.9,10.9090909 L14.1424242,10.9090909 C14.4771423,10.9090909 14.7484848,10.6377483 14.7484848,10.3030303 C14.7484848,9.96831227 14.4771423,9.6969697 14.1424242,9.6969697 Z"></path>
                        </g>
                    </g>
                </g>
            </g>
        </g>
    </g>
</svg>