<?xml version="1.0" encoding="UTF-8"?>
<svg width="24px" height="24px" viewBox="0 0 24 24" version="1.1" xmlns="http://www.w3.org/2000/svg" xmlns:xlink="http://www.w3.org/1999/xlink">
    <!-- Generator: Sketch 46.2 (44496) - http://www.bohemiancoding.com/sketch -->
    <title>vk</title>
    <desc>Created with Sketch.</desc>
    <defs></defs>
    <g id="Symbols" stroke="none" stroke-width="1" fill="none" fill-rule="evenodd">
        <g id="footer" transform="translate(-1265.000000, -67.000000)">
            <g id="vk" transform="translate(1265.000000, 67.000000)">
                <g id="vk-social-network-logo" transform="translate(2.699997, 7.000000)" fill-opacity="0.542091259" fill-rule="nonzero" fill="#FFFFFF">
                    <path d="M17.5901008,8.77243352 C17.5695398,8.72812204 17.5503722,8.69136612 17.5325671,8.66191803 C17.2379623,8.13132605 16.6749806,7.48006193 15.8439623,6.70793989 L15.826405,6.69025865 L15.8176108,6.68158834 L15.8087237,6.67270128 L15.7998057,6.67270128 C15.4226472,6.31316211 15.1838112,6.0714153 15.0837929,5.94764663 C14.9007875,5.71187614 14.8597893,5.47322587 14.9598075,5.23141712 C15.0304705,5.04872131 15.2959059,4.66289253 15.7554942,4.07340437 C15.997241,3.76099454 16.1887,3.51060838 16.330088,3.32196721 C17.3498093,1.96630237 17.7919022,1.10001457 17.6562738,0.722763206 L17.6036017,0.634604736 C17.5682082,0.581530055 17.4768603,0.532976321 17.3296818,0.488695811 C17.1821627,0.444508197 16.9936144,0.437200364 16.7636964,0.466648452 L14.217598,0.484236794 C14.1763521,0.469621129 14.117456,0.470983607 14.0407237,0.488695811 C13.9640844,0.506408015 13.9257492,0.515295082 13.9257492,0.515295082 L13.8814377,0.537435337 L13.8462611,0.564034608 C13.816782,0.581622951 13.7843612,0.612557377 13.7489678,0.656775956 C13.7137602,0.700839709 13.6843121,0.752551913 13.6607784,0.811479053 C13.3835762,1.52464299 13.0684104,2.18770492 12.7146928,2.80063388 C12.4966035,3.1661184 12.2963194,3.48286339 12.1134068,3.75105464 C11.9307419,4.01915301 11.7774942,4.21668124 11.6538184,4.34329872 C11.5299569,4.47004007 11.4181718,4.57157559 11.317782,4.64827687 C11.217547,4.72500911 11.1410316,4.75742987 11.0880498,4.74557013 C11.0349441,4.73371038 10.984935,4.72194353 10.9375889,4.71017668 C10.8551281,4.657102 10.7888002,4.58492168 10.7387911,4.49357377 C10.6885653,4.40222587 10.654751,4.28725137 10.6370698,4.14874317 C10.6194815,4.01014208 10.6090771,3.89092532 10.6061044,3.79069035 C10.6033485,3.69057923 10.6046181,3.5489745 10.6105944,3.36627869 C10.6167255,3.18348998 10.6194815,3.05981421 10.6194815,2.99497268 C10.6194815,2.77096903 10.6238476,2.52785974 10.6326108,2.26558288 C10.6415288,2.00330601 10.6487438,1.79549727 10.654782,1.64240437 C10.6607893,1.48915665 10.6635762,1.32702186 10.6635762,1.1560929 C10.6635762,0.985163934 10.6531718,0.851114754 10.6326108,0.753821494 C10.6122975,0.656652095 10.5811153,0.562331512 10.5400243,0.47089071 C10.4986855,0.379542805 10.4381791,0.308879781 10.3587838,0.258715847 C10.2792337,0.208613843 10.1803303,0.168854281 10.0626308,0.139313297 C9.75022099,0.0686193078 9.35240861,0.0303770492 8.86900788,0.024431694 C7.77280205,0.0126648452 7.06843229,0.0834517304 6.75605341,0.236699454 C6.63228474,0.301448087 6.52028292,0.389916211 6.42014085,0.501825137 C6.31402245,0.631539162 6.29922099,0.702326047 6.37582937,0.713969035 C6.72951607,0.76695082 6.97990223,0.893692168 7.12726653,1.09406922 L7.18037218,1.20024954 C7.22168001,1.27685792 7.26292591,1.41248634 7.30420278,1.606949 C7.34541771,1.80141166 7.37201698,2.01652823 7.3837219,2.25217486 C7.41313902,2.68250091 7.41313902,3.05086521 7.3837219,3.35729872 C7.35421188,3.6638561 7.32634303,3.90250638 7.29974376,4.07343534 C7.27314449,4.2443643 7.23338493,4.3828725 7.18037218,4.48892896 C7.12726653,4.59501639 7.09193502,4.65985792 7.07422281,4.68339162 C7.05654157,4.70692532 7.04180205,4.72175774 7.03009713,4.72757923 C6.95348875,4.75693443 6.8738148,4.77189071 6.79135396,4.77189071 C6.70876926,4.77189071 6.60862719,4.73058288 6.4907729,4.64802914 C6.37294959,4.56547541 6.25066726,4.45208015 6.12392591,4.30765756 C5.99718456,4.16320401 5.85424831,3.96134062 5.69505524,3.70203643 C5.53598602,3.44273224 5.37094048,3.13626776 5.20001152,2.78264299 L5.05859258,2.52618761 C4.97018638,2.36120401 4.84942136,2.1209745 4.69617363,1.80571585 C4.54283301,1.49033333 4.40729749,1.1852623 4.28947418,0.890564663 C4.24237582,0.766795993 4.1716199,0.672568306 4.07733028,0.607726776 L4.03308074,0.581127505 C4.00366361,0.557593807 3.95644139,0.532604736 3.89166179,0.505974499 C3.8267893,0.479375228 3.75909895,0.460300546 3.68831207,0.448564663 L1.26592045,0.466153005 C1.0183831,0.466153005 0.850426821,0.52223133 0.761989662,0.634233151 L0.72659622,0.687214936 C0.708914981,0.716724954 0.699996948,0.763854281 0.699996948,0.828726776 C0.699996948,0.893568306 0.717678187,0.973149362 0.753071629,1.06737705 C1.1066964,1.89848816 1.4912556,2.70002732 1.90674923,3.4721184 C2.32224285,4.24420947 2.68329932,4.86614936 2.98970187,5.33738069 C3.29616635,5.80895264 3.60854522,6.25401821 3.92683848,6.67236066 C4.24513174,7.09085792 4.45582026,7.35904918 4.55890405,7.4768725 C4.6621117,7.59491257 4.7431791,7.68316393 4.80210624,7.74209107 L5.02316817,7.95423497 C5.16461808,8.09571585 5.37233392,8.26515847 5.64640861,8.46256284 C5.92054522,8.66009107 6.22403702,8.85455373 6.55703884,9.04626047 C6.89010259,9.23765756 7.27757254,9.39384699 7.71966544,9.51464299 C8.1616964,9.63556284 8.59192955,9.68408561 9.01042682,9.66067577 L10.0271445,9.66067577 C10.233343,9.64287067 10.3895634,9.57802914 10.4957438,9.46612022 L10.5309204,9.42180874 C10.554578,9.38663206 10.5767183,9.33197814 10.5971554,9.25843534 C10.6178403,9.18476867 10.6281208,9.10360838 10.6281208,9.01532605 C10.6220826,8.76193625 10.641374,8.53356648 10.6854687,8.33024772 C10.7295325,8.12699089 10.7797583,7.97374317 10.8359296,7.87053552 C10.8920698,7.76742077 10.955425,7.68040801 11.0259332,7.60986885 C11.0965962,7.53917486 11.1469459,7.49634973 11.1764869,7.4816102 C11.2058421,7.46677778 11.2292829,7.45671403 11.2469642,7.45067577 C11.3884141,7.40354645 11.554884,7.44918944 11.7466217,7.58782149 C11.9382046,7.72632969 12.1178968,7.89735155 12.2859769,8.10060838 C12.4539642,8.304051 12.6557966,8.5322969 12.8915051,8.7856867 C13.1273685,9.0391694 13.333598,9.22759381 13.5103485,9.35154827 L13.687099,9.4576357 C13.805139,9.52842259 13.9583867,9.59326412 14.1470279,9.65219126 C14.3353285,9.71108743 14.5003121,9.72582696 14.6419787,9.69637887 L16.9051463,9.66107832 C17.1289951,9.66107832 17.3031755,9.62401275 17.4267274,9.55046995 C17.550527,9.47680328 17.6240698,9.39564299 17.6477893,9.30736066 C17.6714469,9.21898543 17.6727164,9.11871949 17.6522793,9.00662477 C17.6313157,8.89480874 17.6106618,8.81662113 17.5901008,8.77243352 Z" id="Shape"></path>
                </g>
                <rect id="Rectangle" stroke-opacity="0.54" stroke="#FFFFFF" stroke-width="1.69999993" x="0.849999964" y="0.849999964" width="22.3000001" height="22.3000001" rx="3"></rect>
            </g>
        </g>
    </g>
</svg>