<?xml version="1.0" encoding="UTF-8"?>
<svg width="11px" height="19px" viewBox="0 0 11 19" version="1.1" xmlns="http://www.w3.org/2000/svg" xmlns:xlink="http://www.w3.org/1999/xlink">
    <!-- Generator: Sketch 46.2 (44496) - http://www.bohemiancoding.com/sketch -->
    <title>walk</title>
    <desc>Created with Sketch.</desc>
    <defs></defs>
    <g id="Page-2" stroke="none" stroke-width="1" fill="none" fill-rule="evenodd">
        <g id="Контакты" transform="translate(-746.000000, -230.000000)" fill-rule="nonzero" fill="#2F223A">
            <g id="walk" transform="translate(746.000000, 230.000000)">
                <g id="Group">
                    <path d="M3.25925926,11.8522727 C3.25925926,11.8522727 3.25925926,11.8522727 3.25925926,11.8522727 C3.17777778,12.5284091 3.05555556,13.3835227 2.91296296,13.6818182 C2.44444444,14.5767045 0.937037037,17.6392045 0.916666667,17.6789773 C0.692592593,18.1363636 0.875925926,18.6931818 1.34444444,18.9119318 C1.48703704,18.9715909 1.60925926,19.0113636 1.75185185,19.0113636 C2.09814815,19.0113636 2.44444444,18.8125 2.60740741,18.4943182 C2.62777778,18.4744318 4.13518519,15.4119318 4.6037037,14.5170455 C4.78703704,14.1590909 4.88888889,13.6818182 4.99074074,13.1647727 C4.54259259,12.7073864 3.46296296,11.9914773 3.25925926,11.8522727 Z" id="Shape"></path>
                    <g transform="translate(0.000000, 4.573864)" id="Shape">
                        <path d="M6.64074074,6.74147727 C6.64074074,6.74147727 6.64074074,6.74147727 6.64074074,6.74147727 C6.68657407,6.78693182 6.68657407,6.74147727 6.64074074,6.74147727 Z"></path>
                        <path d="M10.6944444,4.67329545 C10.1037037,4.21590909 9.18703704,3.40056818 8.94259259,3.04261364 C8.88148148,2.94318182 8.8,2.76420455 8.71851852,2.58522727 C8.31111111,1.71022727 7.53703704,0.0994318182 5.82592593,0.0994318182 C5.82592593,0.0994318182 4.90925926,0.0795454545 4.62407407,0.0795454545 C2.68888889,0.0397727273 1.42592593,1.71022727 1.12037037,2.30681818 C0.835185185,2.90340909 0.183333333,4.79261364 0.0611111111,5.21022727 C-0.0407407407,5.58806818 0.183333333,5.98579545 0.57037037,6.08522727 C0.631481481,6.10511364 0.692592593,6.10511364 0.774074074,6.10511364 C1.1,6.10511364 1.38518519,5.90625 1.48703704,5.58806818 C1.60925926,5.19034091 2.24074074,3.38068182 2.46481481,2.92329545 C2.52592593,2.78409091 2.75,2.46590909 3.07592593,2.16761364 C2.75,3.5 2.87222222,5.32954545 2.93333333,6.10511364 C2.97407407,6.60227273 3.87037037,7.11931818 4.37962963,7.45738636 C5.21481481,8.01420455 6.49814815,9.28693182 6.76296296,9.86363636 C6.96666667,10.3210227 7.84259259,12.7471591 8.29074074,13.8409091 C8.43333333,14.1988636 8.8,14.4375 9.16666667,14.4375 C9.28888889,14.4375 9.39074074,14.4176136 9.51296296,14.3778409 C10.0018519,14.1988636 10.2462963,13.6619318 10.0425926,13.1846591 C9.98148148,13.0454545 8.75925926,9.72443182 8.49444444,9.12784091 C8.27037037,8.61079545 7.27222222,7.41761364 6.64074074,6.76136364 C6.64074074,6.76136364 6.64074074,4.13636364 7.02777778,2.50568182 C7.15,2.72443182 7.27222222,2.96306818 7.39444444,3.20170455 C7.51666667,3.44034091 7.59814815,3.63920455 7.72037037,3.81818182 C8.16851852,4.51420455 9.53333333,5.60795455 9.79814815,5.80681818 C9.94074074,5.90625 10.1037037,5.96590909 10.2462963,5.96590909 C10.4703704,5.96590909 10.6740741,5.86647727 10.8166667,5.70738636 C11.0611111,5.36931818 11.0203704,4.93181818 10.6944444,4.67329545 Z"></path>
                    </g>
                    <ellipse id="Oval" transform="translate(5.200334, 2.064998) rotate(-89.038757) translate(-5.200334, -2.064998) " cx="5.20033363" cy="2.06499837" rx="2.01674881" ry="1.9688302"></ellipse>
                </g>
            </g>
        </g>
    </g>
</svg>